<?xml version="1.0" encoding="utf-8"?>
<!-- Generator: Adobe Illustrator 19.2.1, SVG Export Plug-In . SVG Version: 6.00 Build 0)  -->
<svg version="1.1" xmlns="http://www.w3.org/2000/svg" xmlns:xlink="http://www.w3.org/1999/xlink" x="0px" y="0px"
	 viewBox="0 0 172.6 245" style="enable-background:new 0 0 172.6 245;" xml:space="preserve">
<style type="text/css">
	.st0{fill:#888887;}
	.st1{fill:none;}
	.st2{fill:#77BDAB;}
</style>
<g id="Layer_1">
	<g id="XhzP8N.tif">
		<g>
			<g>
				<path class="st0" d="M48.8,206.7 M9.2,101.1c1.5-0.7,1-2.1,1.2-3.2c1.5-2.9,3.1-5.8,4.6-8.7c0.2-0.4,0.3-0.7,0.4-1.1
					c0.1-0.3,0.1-0.5,0.2-0.8c-0.3-0.1-0.6-0.2-0.9-0.3c0,0.1,0,0.1-0.1,0.2c0-0.1,0-0.1,0.1-0.2c-0.1-0.1-0.1-0.3-0.2-0.4
					c0.3-0.5,0.6-1.1,0.9-1.6c0.1-0.1,0.1-0.2,0.2-0.3c0,0,0,0,0,0c0.6-0.1,0.6-0.6,0.6-1.1c0-0.1,0.1-0.3,0.1-0.4
					c0.1-0.2,0.1-0.3,0.2-0.5c0-0.2,0-0.4,0.1-0.6c0.4,0,0.4-0.3,0.4-0.6c0.5-0.6,0.4-1.3,0.1-1.9c0-0.1,0-0.2,0-0.4
					c0-0.5,0.1-0.9-0.4-1.3c0-0.1,0-0.2-0.1-0.3c-0.1-0.2-0.1-0.3-0.2-0.5c0-0.1,0-0.2-0.1-0.3c-0.9-0.8-1.9-1.6-2.8-2.6
					c-1.4-1.4-2.8-2.5-4.9-2.1C7.4,72.4,7,73,7.8,73.9c1.5,1.8,3.4,3.2,5.7,4l0,0c0.1,0.3,0.3,0.4,0.6,0.4c0.4,0.3,0.8,0.7,1.2,1
					c0.4,1.3-0.6,0.6-1,0.8c-0.3-0.1-0.6-0.1-0.9-0.2l0,0c0,0,0,0,0,0c0,0,0,0,0,0c-0.8-0.7-1.8-0.6-2.7-0.9c0.2-0.4,1.9,0,0.8-1
					c-1.6-1.5-3.6-2.7-5.9-2.9c-0.8-0.1-1.9-0.3-1.9,0.9c0,1.1,1,2.2,2,2.3c1.1,0.1,2,0.5,3,0.7c-0.2,0-0.5,0.1-0.7,0.1
					C7.9,79.3,8,79.4,8,79.4c-0.1-0.1-0.1-0.1-0.2-0.2c0,0,0,0,0,0c-0.2,0-0.3,0-0.5,0c-0.3,0-0.6-0.1-0.9-0.1
					c-3.6,0.1-5.3-2.6-4.4-6.2c0.7-2.7,1.2-5.5,1.3-8.3C3.5,61,5.8,58.1,7.3,55c0.7-1.6,1.1-3.2,1.4-4.8c0.4-2.7,1.2-5.3,1.8-8
					c0,0,0,0,0,0c1.1-1.1,1.2-2.6,1.7-3.9c1.6-4.5,4.4-8.3,7.3-12c3.1-4,7.1-7.1,11.2-9.9c5.1-3.5,10.3-7,16.2-9.3
					c5.8-2.2,11.8-3.3,18-3.6c9.1-0.5,14.6-0.2,23.4,1.7c3.5,0.7,10.2,3.1,13.5,4.4c5.3,2.2,10.6,4.5,15.5,7.6c3.6,2.3,6.8,5,10,7.8
					c4.2,3.6,7.1,8.1,9.7,12.7c1.6,2.9,2.4,6.2,3.4,9.4c1.1,3.5,2.3,7,3.1,10.6c0.7,3.3,1.3,6.6,1.6,10c0.1,1.8,0.4,3.6,0.4,5.5
					c0.1,5.3-1.1,10.5-2.4,15.6c-0.3,1.1-0.5,2.3-0.9,3.4c-0.1,0.3-0.3,0.5-0.4,0.8c0-0.2-0.1-0.5-0.1-0.8c-0.1-0.5-0.1-1-0.1-1.4
					c-0.1-0.5-0.2-1.1-0.3-1.7c-0.1-0.6-0.3-1.2-0.4-1.7c-0.2-0.5-0.5-1-0.7-1.5c-0.1-0.2-0.2-0.3-0.3-0.5c-0.4-0.7-0.9-1.2-1.3-1.8
					c0.3,0.5,0.6,1.1,0.9,1.7c0.1,0.2,0.2,0.5,0.3,0.7c0.1,0.3,0.2,0.5,0.3,0.8c0.9,2.4,1.5,5.2,1.1,8.3c0,0.2-0.1,0.5-0.1,0.7
					c-0.1,0.4-0.1,0.7-0.2,0.9c-0.3,1.4-0.6,2.8-0.9,4.2c-0.1,0.2-0.1,0.4-0.2,0.6c0,0,0,0,0,0c-0.2,0.5-0.4,1-0.5,1.4c0,0,0,0,0,0
					c-0.1,0.2-0.2,0.4-0.2,0.6c-0.1,0.2-0.1,0.4-0.2,0.6v0c-0.1,0.3-0.3,0.5-0.4,0.8c-1,2.4-2.8,4.4-4.5,6.3
					c-0.4,0.5-0.8,0.9-1.1,1.4c-0.4,0.4-0.9,0.8-1.3,1.2l0,0c-0.7,0.9-1.8,2.2-3.2,3.6c-1.3,1.3-3.3,2.6-5.8,4.4
					c-1.7,1.2-3.7,1.3-5.5,2c-0.4,0-0.7,0-1.1,0c-1-0.7-2.1-1.2-3.3-1.6c0,0,0-0.1,0-0.1c-0.5-1.1-1.3-1.9-2.6-2.1
					c-1.3-0.3-2.4-0.8-2.7-2.3c-0.6-2.5-1.3-5-1.9-7.6c-0.1-0.5-0.4-0.9-0.9-1.2c-0.4-0.2-0.8-0.5-1-1c-0.5-1.7-2.4-2.4-4-1.5
					c-2.2,1.2-3.5,3-3.4,5.6c0.1,1.4-0.4,2.6-1.1,3.9c-0.7,1.2-0.4,2.9-0.5,4.4c-0.1,0.8,0.1,1.6-0.5,2.3c-0.1,0.1-0.2,0.5-0.1,0.5
					c1.5,0.9,0.3,1.8,0.1,2.8c-0.8,3.3-1.9,6.6-3.2,9.7c-0.8,1.9-1.9,3.7-2.8,5.5c-3.1,6-8.6,9.4-14.2,12.6
					c-4.4,2.5-9.1,4.5-13.8,6.3c-2.7,1-5,2.9-7.9,3.6c-3.5,0.8-6.8,2.1-10.4,2.9c-3.7,0.8-7.3,1.4-10.9,0.9c-3.2-0.4-6.5-1-8.7-3.9
					c-0.7-1-2.1-1.4-2.7-2.6c-1.6-3.2-1.4-6.4-0.2-9.6c0-0.1,0.1-0.1,0.1-0.2c-0.2-2.3,0.5-3.9,2.6-5.2c1.6-1,0.4-4-1.6-4.4
					c-1.2-0.2-2.3-0.8-3.4-1.3c-0.6-0.3-0.5-0.6-0.2-1.1c0.8-1.3,1.7-2.5,3.3-3c0,0,0,0,0,0c0.1,0,0.3,0,0.4,0
					c0.4-0.3,1-0.3,1.4-0.5c-0.5,0.2-1,0.1-1.4,0.5c1,0.3,1.9-0.5,2.8-0.1c0.2,0,0.4,0,0.6,0c0.3-0.2,0.5-0.5,0.8-0.7
					c-0.3,0.2-0.5,0.5-0.8,0.7c2-0.1,4-0.3,5.9,0.3c0.5,0.1,0.9,0,1.2-0.3c2,0.2,4,0.8,6.1,0.4c0,0,0,0,0,0c0.2,0,0.4,0,0.6,0
					c0.6,0.1,0.2,1.2,1,1c0.1-0.1,0.3-0.2,0.4-0.3c0.2-0.1,0.3-0.2,0.5-0.3c0.2,0,0.3,0,0.5,0c0.2,0.1,0.3,0.2,0.5,0.2
					c0.5,0.2,0.9,0.4,1.4,0.6c0-0.3,0-0.6,0-0.8c-0.1,0-0.1,0-0.2,0c0,0,0,0,0,0c-0.2-0.1-0.4-0.3-0.6-0.4c-0.3-0.1-0.5-0.3-0.8-0.4
					c-0.5-0.1-1.1-0.3-1.6-0.4c0,0,0,0,0,0c-1.6-1.1-3.5-0.3-5.2-0.6c0,0.1,0,0.2,0.1,0.3c1.6,0.2,3.2,0.4,4.9,0.6
					c0,0.1,0,0.1,0,0.2c0,0,0,0,0,0c0,0-0.1,0-0.1,0c-1.1,0-2.2,0-3.2,0c-2.8-0.4-5.5-0.7-8.3-1.1c-0.5,0-1,0.1-1.5,0.1
					c0,0.1,0,0.1,0,0.2c0,0,0,0,0,0c0-0.1,0-0.1,0-0.2c-0.2,0-0.5,0-0.7,0c-0.3,0-0.6,0-0.9,0c-0.2,0-0.3,0.1-0.5,0.1
					c-0.3,0-0.6,0-0.9,0c-0.9-0.2-1.7,0.2-2.5,0.6c-0.1,0-0.2,0-0.3,0c-0.2,0.1-0.3,0.1-0.5,0.2c-0.1,0-0.2,0-0.3,0
					c-0.2,0.2-0.4,0.3-0.6,0.4c0.2-0.1,0.4-0.2,0.6-0.4c-0.3,0-0.5,0-0.8,0c-0.2-0.2-0.4-0.1-0.5,0.1c-0.2,0-0.4,0-0.7,0
					c-1.5-0.6-2.8-0.4-3.8,0.9c-1.2,1.5-0.9,3,0.5,4c0.5,0.4,1,0.6,1.5,1c0.9,0.6,1.1,1.2,0.2,2.1c-1.1,1.1-1.7,2.5-0.5,4
					c0.7,0.9,0.7,1.9,0.2,3c-2.1,5.1-1.5,9.9,2.1,14.2c0.6,0.7,1.3,1.7,2.4,1.2c1.3-0.5,2.3-0.1,3.3,0.5c0.9,0.5,1.8,1.1,2.9,0.9
					c0.2,0,0.3,0,0.5,0c1.7,1.7,3.9,1.3,6,1.4c0.1,0,0.2,0,0.3,0c4.3-0.7,8.7-0.4,12.9-1.6c2.8-0.8,5.7-1.4,8.6-2.3
					c2.1-0.7,4.2-1.4,6.2-2.4c1.9-0.9,4-1.3,5.8-2.3c3.1-1.6,6.2-3,9.3-4.5c3.8-1.9,7.4-4,10.5-6.7c2.3-2,4.5-4.2,6.2-7
					c1.5-2.4,3-4.8,4.2-7.4c0.9-2,1.5-4.5,4-5.3c0.1,0,0.2-0.3,0.2-0.5c0.5-1.7,1.3-3.1,3.3-3.4c2-0.3,4.4,0.8,4.2,2.1
					c-0.3,1.8,0.2,3.7-0.3,5.5c-1,3.5-2.5,6.7-4.5,9.7c-1.7,2.5-4,4.4-5.9,6.6c-3.1,3.4-6.7,6.1-10.5,8.7c-3.9,2.7-8.3,4.4-12.4,6.5
					c-3,1.6-6.2,2.8-9.3,4.2l0,0c0,0,0,0,0,0l0,0c0,0.2,0,0.5,0,0.7c-0.1,0-0.1,0.1-0.2,0.1c-2.5,0.6-4.8,1.5-7.1,2.5
					c-2.5,1.1-5.2,1.9-7.6,3.2c-1.8,0.9-4.7,0.8-4.9,3.7c-0.2,2.1-0.1,4.3,0.2,6.3c0.2,1.5,0.7,3.1,1.6,4.4c0,0,0,0,0,0
					c0.2,2.6,0.8,5.2,1.4,7.7c0,0.1,0,0.2,0,0.4c0.2,4,0.5,6.3,0.6,7.5c0.4,5.4-1.7,6.7-1.1,10.6c0.3,1.7,0,3.6,0.7,5.2
					c0,0.1,0.3,0.7,0.1,1c0,0.1-0.1,0.1-0.3,0.2c-0.6,0.2-0.4,0.3-1.1-0.8c-0.3-0.6-2.5-4.9-3.7-9.4c-1.2-4.5-1.3-9-1.3-9.4
					c-0.1-0.8-0.4-1.2-1-1.3c-0.6-0.1-0.9,0.5-1.1,1c-1.2,3.3-1.7,6.7-2.1,10.2c-0.3,2.5-2.1,5-0.5,7.6c-1,1.2-1.9,2.4-1,4.1
					c0.1,0.2-0.2,0.7-0.2,0.7c-1.4-0.1-0.8,1.3-1.3,1.7c-0.3,0.2,0.4,0.6,0.1,1c-0.7,0.7-1.6,1.4,0,2.1c0,0,0,0,0,0
					c-0.1,0.1-0.1,0.1-0.2,0.2c-0.1,0.1-0.1,0.1-0.2,0.2c0.1,0.3,0.1,0.7,0.1,1c0-0.3-0.1-0.6-0.1-1c-0.3,0.3-0.5,0.6-0.8,0.8
					c-1.2,0.8-1.8,2.4-3.3,2.8c-1.1-0.3-0.7,0.9-1.2,1.3c-1.8,1.4-3.8,2.1-6,2.6c-1.5,0.3-3.1,0.5-4.2,1.7c0.9,0,1.8,0,2.6,0
					c2.6,0,5.1,0,7.7,0c1.3,0,2.6,0,3.8,0c5.1,0,10.2,0,15.3,0c0,0,0,0,0,0c0.3,0,0.5,0,0.8,0c0.3,0,0.7,0,1,0
					c0.2-0.7,0.6-1.2,1-1.6c-0.4,0.5-0.8,1-1,1.6c0.2,0,0.4,0,0.6,0c1.4,0,4.9-2.9,5.4-4.6c0,0,0.1-0.1,0.1-0.1c0-0.1,0-0.1,0.1-0.1
					c0.1-0.3,0.2-0.5,0.3-0.8c0.2-0.2,0.5-0.5,0.7-0.7c0.3-0.3,0.4-1,0.9-0.7c0.5,0.2,0.1,0.8-0.1,1.2c-0.8,1.6-1.2,3.3-2.5,4.6
					c-0.2,0.2-0.4,0.7-0.4,1c0.1,0.5,0.6,0.3,1,0.3c1.5,0,3,0,4.5,0c1.1-1.3,2.6-1.7,4.2-1.9c8.5-1,17.1-0.7,25.5-2.1
					c8.5-1.4,17-2,25.5-2.7c4.4-0.4,8.5-1.6,12.5-3.1c2.2-0.8,4.3-1.8,6.7-2.2c0.7-0.1,1.4-0.1,2.1,0.2l11.2-3.8
					c-0.4,0.1-0.8,0.1-1-0.3c-0.2-0.5,0.2-0.7,0.5-1c3.7-2.4,7.7-3.9,11.7-5.6c3.1-1.4,6.5-2,9.3-4.2c0.7-0.6,1.9-0.6,2.9-0.9
					c1-0.4,1.5-0.9,0.4-1.8c-2.3-2-4.7-4-7-6.1c-1.2-1.1-2.4-2.4-3.8-3.3c-1.6-1-3.1-2.3-4.7-3.3c-3.4-2.1-6.5-4.6-9.4-7.4
					c-0.1-0.1-0.2-0.1-0.3-0.1c0,0,0,0,0,0c-1.7-2.2-3.6-4.2-5.1-6.5c-3.6-5.7-7.4-11.3-10.8-17.1c-1.3-2.2-2.3-4.5-3.8-6.6
					c-2.1-3-1.7-6.5-1.4-9.9c0.9-9.3,3.9-18.1,6.6-26.9c1.8-5.9,4.2-11.5,6.8-17c2.2-4.7,4.3-9.4,5.6-14.4
					c1.9-6.8,3.5-13.6,3.4-20.7c-0.1-5.2-0.5-10.4-1.8-15.4c-1.7-6.5-3.7-13-6.7-19c-3-6-6.4-10.2-8.4-12.4
					c-0.6-0.7-1.2-1.2-1.4-1.5c-0.3-0.3-6-6.1-13.6-10.6C105.6,5.6,93.5,3.2,87.5,2c-4.9-0.9-12.1-2.3-21.6-2
					C63.5,0.1,52.5,1.3,45.8,4c-2,0.8-4,1.7-5.8,3.1c-1.5,1.1-3.6,1.4-5.2,2.5c-4.1,2.8-8.5,5.3-12.6,8.1c-3.6,2.5-5.8,6.3-8.2,9.9
					c-1.2,1.7-2.4,3.5-3.2,5.4c-1.9,4.7-3.6,9.4-4.3,14.4C5.9,51.9,4.2,56,2.8,60.3c-1.4,4.3-3.4,8.5-2.7,13.2
					c0.3,1.9,0.9,3.8,1.9,5.4c0.6,1,0.4,2.1,1,3.1c0.2,0.3,0.5,0.5,0.7,0.8c0.2-0.3,0.4-0.5,0.5-0.8c0.1-0.2,0.1-0.7,0.5-0.6
					c0.4,0.1,0.1,0.5,0.1,0.8c-0.2,1-0.2,1.9,0.2,2.9c0.1,0.2,0.5,0.9-0.4,0.7c0,0.3,0,0.5,0,0.8c0.5,0.1,0.4,0.5,0.5,0.9
					c0.3,0.8,0.2,1.7,0.9,2.4C6.1,89.6,6,89.5,6,89.3c0,0.1,0.1,0.3,0.1,0.4c0,0.1,0,0.1,0.1,0.2c0.1,0.7,0.5,1.5-0.4,2.1
					c-0.5,0.3,1.7,1,1.3,3.6C6.4,100.9,2.8,108,2.8,108c0,0.7-0.4,1.4-0.1,2.1c0,0.1,0,0.2,0,0.4c0.1,0.5,0.3,1,0.4,1.4
					c-0.2,0-0.4,0.1-0.5,0.3c-0.2,0.2-0.1,0.5-0.1,0.7c0.1,0.7,1.4,3,4.4,4.1c0.6,0.2,0.7,0.2,2.1,0.6c1.1,0.4,1.9,0.7,2.5,0.9
					c0.7,0.5,1.6,0.6,1.6,1.7c-0.1-0.1-0.2-0.1-0.4-0.2c-0.2-0.2-0.4-0.2-0.5,0.1c0,0-0.1,0-0.1,0.1c-1.7,1.3-1.9,3.2-2,5.1
					c0,0,0,0,0,0c-0.1,0.4-0.3,0.8-0.4,1.2c-1.1,1.6-1.6,3.3-1.6,5.2c0,1.2,0.8,1.6,1.8,1.8c0.4,0.1,0.9,0.1,0.8-0.6
					c0-0.3-0.5-0.7,0-1c0.2-0.1,0.7,0.2,1,0.3c0.5,0.2,0.9,0.6,1.4,0.8c2.1,0.9,4.2,1.8,6.6,1.1c0.3,0,0.7,0.1,1,0.1
					c1.2,0.3,2.3-0.1,3.4-0.3c0.5,0,0.9,0.1,1.4,0.1c0.1,0,0.2,0,0.3,0c0.5,0.1,0.9,0.1,1.4,0.2c0.2,0,0.4,0.1,0.6,0.1
					c1.5,0.2,2.9,0.4,4.4,0.7l0,0c0.4,0.1,0.8,0.2,1.1,0.2c0-0.1,0-0.2-0.1-0.3c0,0,0,0,0,0c0,0,0,0,0,0c-1.4-0.8-2.9-1-4.4-1.1
					c0.6,0.7,1.5,0.6,2.2,0.7c-0.8-0.1-1.7-0.1-2.3-0.7c-0.2,0-0.5,0-0.7,0c-0.1,0-0.2,0-0.2,0c0.1,0,0.2,0,0.2,0
					c-0.5-0.4-1.1-0.5-1.7-0.4c-0.2,0-0.4,0-0.7-0.1c-0.1,0.1-0.2,0.1-0.3,0.1c0.1,0,0.2-0.1,0.3-0.1c-0.2-0.1-0.4-0.2-0.7-0.3
					c-0.6-1.3-1.8-0.8-2.7-0.9c-0.2,0-0.3,0-0.5,0c-0.9,0.4-1.8,0.6-2.7,0.7c0.9-0.1,1.8-0.3,2.7-0.7c-2,0-4,0-6,0
					c-0.2,0-0.5,0-0.7,0c-0.4,0.2-0.6,0-0.8-0.2c-0.2-0.1-0.4-0.3-0.6-0.4l0,0c-0.1-0.2-0.2-0.4-0.4-0.6c0.1,0.2,0.2,0.4,0.4,0.6
					c0,0,0,0,0,0c0.2,0.1,0.4,0.3,0.6,0.4c0.2,0.2,0.5,0.4,0.8,0.2c-1-1.4-2.6-2.7-0.6-4.5c0,0,0,0,0,0c0.3,0,0.5-0.1,0.6-0.4
					c0.3-0.3,0.5-0.5,0.8-0.8c2.3-0.8,0.5-2.1,0.5-3.2c-0.4-0.7-0.8-1.4-0.4-2.3c0-0.1,0-0.1-0.1-0.2c-0.3,0-0.5-0.2-0.6-0.3
					c0.1,0.2,0.3,0.3,0.6,0.3c0-0.2-0.2-0.7-0.1-0.7c2.4-1.7,0.6-2.1-0.8-2.7c-0.4-0.2-0.7-0.5-0.7-0.9c0-0.2,0.2-0.6,0.3-0.6
					c1.2,0,2.3-1,3.7-0.4c1.2,0.4,2.1,1.3,3.3,1.7c0,0,0,0,0,0c0.7,0.2,1.4,0.5,2.2,0.3c1.9,0.2,3.9-1.1,4.5-2.8
					c0.1-0.2,0.3-0.5-0.1-0.7c-0.1-0.1-0.4,0-0.5,0.1c-1.2,1.8-2.8,2.4-4.9,1.4c-0.3,0-0.6-0.1-0.9-0.2c-0.5-0.9-1.5-0.8-2.3-1
					c-3.2-0.9-6.1-0.5-8.9,1.5c-0.8,0.5-1.8-0.6-2.6-1c-1.1-0.6-1.8-1.7-2.7-2.7l0,0c0.3-1.4-0.5-2.9,0.2-4.3c0-0.2,0-0.4,0-0.6
					c0,0,0,0,0,0c1.3-0.2,2.2-1.3,2.7-2.2c0.4-0.9,2-1.8,0.9-3.2 M48.6,213.3c0.2,0.1,0.3,0,0.3-0.2 M50.4,215.4
					c-0.1-0.2-0.2-0.3-0.4-0.5 M48.7,196.7c-0.1-4.4-2.3-8.3-2.5-12.7c-0.1-2.9,0.9-6,3.1-6.6c1.1-0.3,2-1,3-1.3
					c2.4-0.6,4.5-1.9,7-2.2c2.2-0.3,4.2-1.4,6.3-2.1l0,0c0.9-0.4,1.7-0.9,2.6-1.3c2.4-1,4.6-2.5,7-3.3c3.5-1.3,6.5-3.3,9.6-5.1
					c3.4-2,6.8-4,10-6.3c3-2.2,5.7-4.7,7.9-7.7c3.4-4.6,5.9-9.8,8.8-14.7c2-3.2,3.7-6.8,7-9.1c0,0,0,0,0,0c0,0,0,0,0,0
					c0.7-0.5,1.6-0.2,2.3-0.8c0.1,0,0.3,0,0.4,0c0.4,0,0.8-0.1,1.2,0c0.3,0,0.6,0.2,0.5,0.5c0,0.2-0.2,0.4-0.3,0.5
					c-2.6,0.2-0.3,0.7-0.1,1.1c0.1,0.2,0.3,0.4,0.4,0.6c0.3,2.3-0.4,4.5-0.7,6.7c-0.1,1.1-0.1,1.6,1,1.9c-0.7,0.8-1.6,1.6-0.5,2.7
					c0.2,0.2,0.6,0.4,0.3,0.7c-0.3,0.4-0.6-0.1-0.8-0.2c-0.3,0.3-0.6,0.6-0.8,0.9c1.1,1.3-0.2,1.7-0.8,2.3c0,0.5,0,1.1-0.1,1.6
					c0.4,0.5,0.8,1.1,1.2,1.6c0,0,0,0,0,0c-0.1,0.1-0.2,0.3-0.2,0.4c-0.1,0-0.2,0-0.3,0c-0.1,0.9-0.6,1.5-1,2.2
					c-1.5,1.4-1.8,3.3-2.1,5.2c-0.3,1.8-0.7,3.5-0.7,5.3c0,4.1,0.2,8.1,0,12.2c-0.2,3.7,0.2,7.3,0.3,10.9c0,1.7,0.9,3.5,2.1,4.1
					c1.5,0.7,3.4,0.3,5.2,0.3c1.5,0,2.7,0.5,3.9,1.4c2.1,1.5,3.2,3.7,4.3,5.9c0.8,1.7,0.7,5.9-0.5,7.3c-0.6,0.7-1.3,1.4-2,2
					c-0.1,0.1-0.1,0.1-0.2,0.2c-0.4,0.6-1.3,1.7-3.1,4.1c-9,14.2-20.4,17.5-23.5,18.8c-3.2,1.4-5.5,1.5-8.1,2.3
					c-3.6,1.1-7.2,1.9-10.8,2.8c-5.3,1.3-10.9,2-16.4,1.1c-1.9-0.3-2.3-1.5-2.1-3c0.2-2.4,1.3-4.6,2-6.9c0.7-2.5,2.2-4.7,1.9-7.5
					c-0.1-0.4-0.2-0.7-0.6-0.9c-0.4-0.2-0.7-0.1-1,0.2c-1.7,2-3.8,3.5-5.2,5.8c-1.4,2.3-3.2,4.4-4.8,6.6c-0.8,1.1-1,2.6-2.2,3.6
					c-0.9,0.7-1.7,1.1-2.8,1.3c-0.6,0.1-0.8-0.2-1.1-0.7c-1.3-2.5-0.8-5.2-0.7-7.9c0-2-0.1-3.9-0.6-5.8 M14.2,133.1
					C14.2,133.1,14.2,133.1,14.2,133.1c0.2,0.2,0.4,0.3,0.6,0.4C14.6,133.4,14.4,133.3,14.2,133.1L14.2,133.1
					c-0.5,0-0.9-0.2-1.2-0.6C13.3,132.9,13.7,133.1,14.2,133.1z M12,117L12,117C12,117,12,117,12,117c-0.1,0.1-0.2,0.2-0.3,0.2
					C11.8,117.2,11.9,117.1,12,117z M141.2,90.6c0,2.1,0.1,4.2,0.1,6.3C141.2,94.8,141.2,92.7,141.2,90.6L141.2,90.6z M140.6,97
					L140.6,97c-0.1,0.2-0.2,0.4-0.2,0.7C140.4,97.5,140.5,97.3,140.6,97z M132.2,113.7C132.2,113.7,132.2,113.7,132.2,113.7
					c-0.1,0.1-0.1,0.1-0.2,0.2C132.1,113.8,132.2,113.8,132.2,113.7z M131.1,114.8c0.1,0,0.2,0,0.2,0
					C131.3,114.8,131.2,114.8,131.1,114.8L131.1,114.8z M128.1,118c0.1-0.1,0.1-0.1,0.2-0.2C128.3,117.8,128.2,117.9,128.1,118
					c-0.5,0.1-1,0.3-1.3,0.7C127.2,118.3,127.6,118.1,128.1,118z M125.9,135.5C126,135.5,126,135.6,125.9,135.5
					C126,135.6,126,135.5,125.9,135.5L125.9,135.5z M110.3,120.9c0,0.2-0.1,0.4-0.1,0.6C110.2,121.2,110.2,121,110.3,120.9
					c0.1-0.1,0.1-0.3,0.2-0.4C110.4,120.6,110.3,120.7,110.3,120.9z M117.1,124.3c0.1,0,0.2-0.1,0.3-0.1c0,0,0,0,0,0
					C117.3,124.2,117.2,124.2,117.1,124.3z M121.8,145.9C121.8,145.9,121.8,145.9,121.8,145.9c0.1,0.4,0.2,0.8,0.2,1.2
					C122,146.7,122,146.3,121.8,145.9z M123.9,121.6c-0.1,0-0.1,0-0.2,0.1c-0.1,0-0.1,0.1-0.2,0.1c0.1,0,0.1-0.1,0.2-0.1
					C123.7,121.7,123.8,121.7,123.9,121.6c0.1-0.1,0.3-0.1,0.4-0.2c0,0,0-0.1,0-0.1c0,0,0,0.1,0,0.1
					C124.1,121.5,124,121.6,123.9,121.6z M56.6,230.2C56.6,230.2,56.5,230.3,56.6,230.2L56.6,230.2c0-0.3,0.1-0.6,0.4-0.8
					C56.7,229.6,56.6,229.9,56.6,230.2z M57.2,229.2C57.2,229.2,57.2,229.3,57.2,229.2L57.2,229.2c0-0.1,0-0.2,0.1-0.3
					C57.2,229,57.2,229.1,57.2,229.2z M59.6,225.9c-0.3,0.4-0.7,0.8-1,1.3C58.9,226.8,59.2,226.4,59.6,225.9c0-0.3,0-0.6,0.2-0.8
					C59.6,225.4,59.6,225.7,59.6,225.9c0.2-0.1,0.3-0.2,0.4-0.4C59.9,225.7,59.8,225.8,59.6,225.9z M60.6,223.9
					C60.6,223.9,60.6,223.9,60.6,223.9c-0.2,0.2-0.3,0.4-0.4,0.6c-0.1,0.1-0.2,0.3-0.2,0.4c0.1-0.1,0.2-0.3,0.2-0.4
					C60.3,224.3,60.5,224.1,60.6,223.9L60.6,223.9c1.2-2.2,2.5-4.3,4.2-6.2C63.2,219.6,61.8,221.7,60.6,223.9z M69.2,234.9
					c0.3-0.1,0.5-0.1,0.7-0.4c0,0,0,0,0,0C69.7,234.8,69.4,234.9,69.2,234.9z M70.9,234.4c-0.1,0.1-0.2,0.2-0.3,0.2
					C70.7,234.6,70.8,234.5,70.9,234.4c0.8-0.1,1.7-0.2,2.5-0.3C72.6,234.2,71.7,234.3,70.9,234.4z M76.6,233.1
					c-0.6,0.1-1.3,0.2-1.9,0.2C75.4,233.2,76,233.2,76.6,233.1c0.2-0.1,0.4-0.2,0.6-0.3C77,232.8,76.8,233,76.6,233.1z M124.5,223.3
					L124.5,223.3c0-0.1,0-0.1,0-0.2C124.5,223.2,124.5,223.3,124.5,223.3z"/>
				<path class="st0" d="M130.5,201.3C131.3,200.2,130,201.7,130.5,201.3L130.5,201.3z"/>
			</g>
			<path class="st0" d="M104,5.9C104,5.9,104,5.9,104,5.9C104,5.9,104,5.9,104,5.9L104,5.9z"/>
			<path class="st0" d="M34.2,72.1c-1.9-0.4-3.8-0.5-5.7,0.1c-2.7,1-3.1,2.7-1,4.5c0.4,0.3,0.9,0.4,1.4,0.6c0,0.1,0,0.3-0.1,0.4
				c0,0,0,0,0,0c-0.1,0.1-0.2,0.1-0.3,0.2c-0.2,0.1-0.4,0.1-0.5,0.2c-0.4,0.7-1.4,1-1.3,2c0,1.7,0.8,3,2.1,4.1
				c0.8,0.7,1.4,0.7,2.1-0.1c0.8-0.9,1.6-1.8,2.7-2.4c0.1-0.2,0.1-0.4,0.2-0.5c-0.1,0.2-0.1,0.4-0.2,0.5c0.5,2.1,2.8,1.4,3.9,2.7
				c-0.1,0.8,0.3,1.7-0.3,2.4c0.3,0.6,0.5,1.1,0.8,1.7c0-0.5,0-1.1,0.1-1.6c0-0.2,0-0.3,0-0.5c0,0.2,0,0.3,0,0.5c0-0.1,0-0.2,0-0.2
				c0.1,0,0.2,0,0.3,0c-0.1,0-0.2,0-0.3,0c0,0.1,0,0.2,0,0.2c0,0.5,0,1.1-0.1,1.6c0,0.3,0,0.5,0,0.8c-0.1,0.9-1.1,2.2,0.7,2.4
				c1.3,0.2,2.6,0.1,3.8,0c0.8,0,1.3-0.6,0.8-1.3c-0.6-1-0.6-1.7,0.6-2.1c0.2,0,0.4,0,0.6,0c1-0.2,1.9-1,1.7-1
				c-1.6,0.1-1.4-1.6-2.3-2.2c0-0.1,0-0.3-0.1-0.4c0-0.5,0-1.1,0-1.6c-0.3-1,0.9-1.2,1-2c0.1,0,0.2,0,0.4,0c0.4,0.3,0.9,0.4,1.4,0.4
				c0,0,0,0,0,0c0.2,0.1,0.4,0.1,0.6,0.2c0,0,0,0,0,0c0,0.1,0,0.1,0,0.2c-0.5,0.6-1.4-0.4-1.9,0.6c-0.5,1.1-1.1,2.1-0.2,3.2
				c0.8,0.9,1.8,1.1,3,1.1c1.6-0.1,3.1-0.8,4.6-1.1c0.1-0.1,0.3-0.3,0.4-0.4c0.5,0,1,0.1,1.2-0.5c0.1-0.6-0.5-0.6-0.8-0.8
				c-0.2-0.2-0.6-0.2-0.9-0.3l0,0C52,82.9,51,83,50.1,82.8l0,0.1h0c0,0,0-0.1,0-0.1c-0.6-0.6-1.3-1-2.1-1.2
				c-0.1-0.3-0.5-0.7-0.4-0.8c0.3-0.5,0.9,0,1.4-0.2c0,0,0,0,0,0c0.1,0,0.2,0,0.3,0c0.2,0.1,0.3,0.1,0.5,0.2c1,0.3,2.1,0.7,3.1,1
				c1,0.6,2,1.2,3.3,1.3c0.3,0.1,0.7,0.2,1,0.3c1,1.7,6.6,2.4,8,1c0.3-0.3,0.3-0.8,0-1c-0.9-0.5-1.7-1.2-2.7-1.5
				c-1.9-0.7-4.1-0.6-5.8-1.5c-2-1-4.4-1.3-6.2-2.9c-0.6-0.6-1.8-0.4-2.5-1.1c-1.6-1.4-3.4-2.6-4.7-4.3c-0.7,0.3-1.3,1.8-2,0
				c-0.6-0.8-1.5-0.6-2.4-0.6c-0.5-1.1-1.3-1.5-2.5-1.4C35.7,70.8,35,71.5,34.2,72.1 M29.2,79.2c-0.3-0.3-0.5-0.4-0.7-0.4
				C28.8,78.8,29,78.9,29.2,79.2C29.2,79.2,29.2,79.2,29.2,79.2z M30.5,78.8c0.2,0,0.5,0.1,0.6,0.2C30.9,78.9,30.7,78.8,30.5,78.8z
				 M33.8,80.8c0.1-0.1,0.2-0.3,0.3-0.4C34,80.6,33.9,80.7,33.8,80.8z M35.6,72.8L35.6,72.8c0.1-0.2,0.1-0.3,0.2-0.5
				C35.8,72.5,35.7,72.7,35.6,72.8z M38.1,86.3c0-0.1,0-0.1,0-0.2C38.1,86.2,38.1,86.2,38.1,86.3c0.2-0.1,0.4-0.1,0.6-0.2
				C38.5,86.1,38.3,86.2,38.1,86.3z M45.3,79.7C45.3,79.7,45.3,79.7,45.3,79.7 M44.8,79.3C44.8,79.3,44.8,79.3,44.8,79.3"/>
			<path class="st0" d="M16.2,86c-0.3,0.1-0.5,0.3-0.5,0.7C16,86.6,16.2,86.4,16.2,86z"/>
			<path class="st0" d="M21.1,109.9c-1.7-0.2-3.4-0.3-5-0.4c-0.9-0.1-1.6-0.3-2.2-1.1c-0.6-0.8-1.7-1.3-2.6-1.9
				c-1.2,0.7-2.8,0.3-3.4,1.7c-0.5,1.3-1.1,2.5,0,4c0.8,1,1.8,0.3,2.1,0.1c1.7-0.9,3.5,1.5,5.1-0.2c0.1-0.1,0.3,0,0.4,0
				c0.8,1.1,2.1,0.5,3.2,1.1c1,0.6,2.3,0.8,3.5,0.8c1.3,0,1.8-1.3,1.7-2.3C23.5,110.4,22.3,110,21.1,109.9z"/>
			<g>
				<path class="st1" d="M118,100.7c-0.1-0.1-0.3-0.3-0.4-0.4c0-0.1,0-0.1,0-0.2c0,0.1,0,0.1,0,0.2
					C117.7,100.5,117.8,100.6,118,100.7z"/>
				<path class="st1" d="M117.4,99.3c-0.2-0.1-0.4-0.1-0.6-0.2c0,0-0.1,0-0.1,0c0,0,0.1,0,0.1,0C117,99.1,117.2,99.2,117.4,99.3z"/>
				<path class="st1" d="M121.4,93c0-0.4,0-0.7,0.1-1.1c0,0,0,0,0,0C121.5,92.3,121.5,92.7,121.4,93z"/>
				<path class="st1" d="M117.6,99.5L117.6,99.5c0.1,0,0.1,0.1,0.1,0.1C117.7,99.5,117.6,99.5,117.6,99.5z"/>
				<path class="st1" d="M131.4,105c0,0-0.1,0.1-0.1,0.1L131.4,105C131.4,105.1,131.4,105,131.4,105z"/>
				<path class="st1" d="M115.7,108.1c0,1.1,1,1.7,2.4,2c0.1,0,0.3,0,0.4,0.1c0,0,0,0,0,0c-0.1,0-0.3,0-0.4-0.1
					C116.7,109.8,115.8,109.2,115.7,108.1z"/>
				<path class="st1" d="M124.5,92.2c0-0.1,0-0.2,0-0.4C124.5,91.9,124.5,92,124.5,92.2L124.5,92.2z"/>
				<path class="st1" d="M131.5,105l2.2-1.1c-0.2-0.5,0-0.8,0.4-1c0-0.2,0-0.4,0-0.6c0.6-3-0.7-5.9-0.6-8.9c0-1.7,0.5-3.5,0-5.2
					c-0.2-0.7-0.3-1.3-0.8-1.8c-1.4-1.2-2.3-3-4.5-3.2l0,0c-0.2,0-0.4,0-0.6,0c-0.6,0.3-1.3,0.5-1.9,0.8c-0.2,0.2-0.4,0.3-0.6,0.5
					c0,0,0,0,0,0c0,0.1-0.1,0.2-0.1,0.3l0,0c0.4,1-0.6,1.2-1.1,1.7c-1,1.1-2,2.1-1.3,3.8c0.5,0.5,1.5,0.3,1.6,1.2
					c0.1,0.1,0.3,0.2,0.4,0.2c1.1,0.3,1.8,1.2,2.4,2c-0.1,0-0.1,0-0.2,0c0.1,0,0.1,0,0.2,0c0.4,0.2,0.8,0.3,1.2,0.5
					c0.7-0.4,0.7,0.1,0.8,0.6c0.5,0.3,1,0.7,1.6,1c0.6,0,0.7,0.3,0.7,0.8c0.2,0.1,0.4,0.3,0.5,0.4c0.7,0.1,1,0.4,1,1.1
					c0.1,0.6,0.2,1.3,0.3,1.9c0.6,0.5,0.6,1.1,0,1.6c-0.2,1-0.4,2-1.2,2.7c-0.1,0.4-0.1,0.3-0.5,0.4c0,0,0,0.1,0,0.2
					C131.4,105,131.4,104.9,131.5,105L131.5,105z"/>
				<path class="st1" d="M133.7,103.9C133.7,104,133.7,104,133.7,103.9c0,0.1-0.1,0.2-0.2,0.3l4.7-2.6L133.7,103.9z"/>
				<path class="st1" d="M119.7,109.5c0.3,0,0.7-0.1,1-0.2l0,0C120.4,109.3,120,109.4,119.7,109.5z"/>
				<path class="st1" d="M115.8,106.6c0-0.1,0-0.3,0-0.4C115.7,106.3,115.8,106.5,115.8,106.6L115.8,106.6z"/>
				<path class="st1" d="M123.3,93.2c-0.1,0-0.2,0-0.3,0C123.1,93.2,123.2,93.2,123.3,93.2L123.3,93.2z"/>
				<path class="st1" d="M122.4,91.6c0.1,0.2,0.2,0.4,0.3,0.6c0.6,0.3,1.1,0.7,1.6,1.1c-0.5-0.4-1-0.8-1.6-1.1
					C122.6,91.9,122.5,91.7,122.4,91.6c-0.1-0.1-0.2-0.2-0.3-0.3C122.2,91.4,122.3,91.5,122.4,91.6z"/>
				<path class="st1" d="M134.8,84.7c0.3,0.1,0.4,0.4,0.6,0.7c0.1,0.2,0.2,0.4,0.4,0.6c-0.1-0.2-0.2-0.4-0.4-0.6
					C135.2,85.1,135,84.9,134.8,84.7z"/>
				<path class="st1" d="M130.8,104.5c-0.2,0.3-0.4,0.5-0.6,0.7C130.4,105,130.6,104.8,130.8,104.5z"/>
				<path class="st1" d="M135.8,86c0.1-0.1,0.2-0.2,0.3-0.3C136,85.7,135.9,85.8,135.8,86C135.8,86,135.8,86,135.8,86z"/>
				<path class="st1" d="M137.3,86.9C137.3,86.9,137.3,86.9,137.3,86.9c-0.3-0.4-0.7-0.7-1-1.1C136.6,86.2,137,86.6,137.3,86.9z"/>
				<path class="st1" d="M138.7,96.6c0-0.5,0-1,0-1.6C138.7,95.5,138.7,96,138.7,96.6C138.7,96.5,138.7,96.5,138.7,96.6z"/>
				<path class="st1" d="M122.7,95.6c0.2,0.1,0.5,0.3,0.7,0.4C123.2,95.9,123,95.8,122.7,95.6C122.7,95.6,122.7,95.6,122.7,95.6z"/>
				<path class="st1" d="M131.6,98c0.2,0.3,0.3,0.5,0.4,0.8C132,98.5,131.8,98.3,131.6,98c-0.9-1.1-2-2-3.2-2.9
					C129.6,96,130.7,96.9,131.6,98z"/>
				<path class="st1" d="M132.5,100.1c0.1,0.4,0.1,0.7,0.1,1.1C132.5,100.8,132.5,100.4,132.5,100.1z"/>
				<path class="st1" d="M128.2,107c-0.2,0-0.5,0.1-0.7,0.2C127.7,107.1,127.9,107.1,128.2,107C128.2,107,128.2,107,128.2,107z"/>
				<polygon class="st1" points="125.9,94.2 125.9,94.2 125.9,94.2 				"/>
				<polygon class="st0" points="136.3,85.9 136.3,85.9 136.3,85.9 				"/>
				<polygon class="st0" points="138.2,101.7 138.2,101.7 138.2,101.7 				"/>
				<path class="st0" d="M121.2,93.8L121.2,93.8c-0.1-0.3-0.2-0.6-0.2-1C121.1,93.1,121.1,93.5,121.2,93.8z"/>
				<g>
					<path class="st0" d="M123.1,90.7c-0.2-0.2-0.5-0.5-0.7-1c0-0.1-0.1-0.3-0.2-0.5c-0.1-0.6,0.3-1,0.5-1.5
						c0.6-1.2,0.9-1.8,1.3-2.3c0.5-0.5,1-0.9,1.2-1c0.3-0.2,0.7-0.4,1.2-0.6c2.5-1,4.2,0.6,5.8,2.5c2.2,2.7,0.8,6.5,1.3,9.8
						c0.4,2.6,1.2,5.9-0.1,8.2c-0.3,0.6-0.9,1.3-1.3,1.8c-0.6,0.8-1.7,1.1-2.3,2.1c-1.9,3.2,4.1,1,5.3-0.3c1.5-1.7,2.7-3.9,3-6.1
						c0-1,0.8-1.7,1-2.6c0.3-1.1,0.6-3.7,0.1-4.7c0.3-2.8,0.1,0.2,0,0c0.4-4.2-1.7-9.8-5.9-11.1c0.7-0.9-3.9-1-4.4-0.9
						c-1.6,0.2-2.5,0.5-3,0.8c-0.4,0.2-0.7,0.4-0.9,0.6c-0.4,0.3-0.9,0.6-1.3,0.9c-0.8,0.8-1.3,1.5-1.7,2.1
						c-0.3,0.4-0.5,0.9-0.8,1.6c-0.2,0.5-0.3,1.1-0.5,1.9c-0.2,1-0.3,1.9-0.4,2.9c0,0.2,0,0.5,0.1,0.9c0.1,0.5,0.2,1.2,0.6,1.9
						c0.1,0.2,0.4,0.6,0.8,1c0.7,1,0.9,1.1-0.1,1.5c-0.6,0.2-2-0.5-2.8-0.3c-0.5,0.1-1.5,0.5-1.9,0.8c-1.4,1.3,0.3,1.2,0.2,3.2
						c0,1.1-0.8,1.8-1.1,2.7c-0.1,0.2-0.1,1-0.2,1.1c-0.2,0.3-0.4,0.1-0.6,0.5c-0.7,1.4-1.3,1.7-0.9,3.4c0.4,1.8,1.2,2.5,2.8,1.8
						c1.5-0.7,2.4-2,4.2-1.9c2,0,2.7,0.7,4.6-0.4c0.7-0.4,1.2-1.1,2-1.5c0.5-0.4,1-0.8,1.5-1.2c0.2-0.2,0.7-0.6,1-0.8c0,0,0,0,0,0
						c0.1-0.1,0.1-0.1,0.2-0.2c0,0,0,0,0,0c0.6-0.7,1.3-1.2,1.7-2.2c0.7-1.6,0.8-3.7,0-5.3c-0.5-1-2.3-2-5.8-4.1
						C126.9,93.8,125.4,92.9,123.1,90.7z M125.9,94.2C125.9,94.2,125.9,94.2,125.9,94.2L125.9,94.2z"/>
				</g>
			</g>
			<path class="st0" d="M132.3,81.3c-1.1-0.6-2.2-1.2-3.5-0.8C129.6,82.1,131.1,81.1,132.3,81.3z"/>
			<path class="st0" d="M122.8,82.1c-0.2-0.1-0.4-0.2-0.4-0.1c-0.3,0.3-0.6,0.6-0.9,0.9c0,0,0.1,0.1,0.1,0.2
				C122,82.8,122.3,82.5,122.8,82.1z"/>
		</g>
	</g>
	<ellipse class="st2" cx="93" cy="81" rx="23.9" ry="44.9"/>
	<circle class="st2" cx="89.9" cy="191.4" r="23.5"/>
</g>
<g id="Layer_2">
</g>
</svg>
