<?xml version="1.0" encoding="utf-8"?>
<!-- Generator: Adobe Illustrator 19.2.1, SVG Export Plug-In . SVG Version: 6.00 Build 0)  -->
<svg version="1.1" id="Layer_1" xmlns="http://www.w3.org/2000/svg" xmlns:xlink="http://www.w3.org/1999/xlink" x="0px" y="0px"
	 viewBox="0 0 376.9 456.8" style="enable-background:new 0 0 376.9 456.8;" xml:space="preserve">
<style type="text/css">
	.st0{fill:#888887;}
	.st1{fill:#77BDAB;}
</style>
<g>
	<path class="st0" d="M328.8,367.7C328.8,367.8,328.8,367.8,328.8,367.7l0.1-0.1L328.8,367.7z"/>
	<path class="st0" d="M6.2,444.6l29.5-23.2C24.8,427.3,14.7,434.8,6.2,444.6z"/>
	<path class="st0" d="M116.4,239.6c-0.4-0.1-0.7-0.1-1.1-0.2c-2.5-0.1-4.9-0.2-7.4-0.2c-0.6,0.5-1.1,1-1.7,1.5
		c3.1-0.2,6.1-0.3,9.2-0.5C115.8,240.1,116.1,239.8,116.4,239.6z"/>
	<path class="st0" d="M105.7,240.6c-1.2,0.6-2.4,1.3-3.6,1.9l0,0c-0.4,1-0.9,2-1.4,3c1.9-1.7,3.7-3.3,5.6-5
		C106.1,240.6,105.9,240.6,105.7,240.6z"/>
	<path class="st0" d="M505.9-15.9l0.6,2.3C506.5-14.3,506.1-15.1,505.9-15.9z"/>
	<path class="st0" d="M102.7,222.2c0,0-0.1,0.1-0.1,0.1c0,0,0,0,0,0C102.6,222.3,102.7,222.2,102.7,222.2z"/>
	<polygon class="st0" points="335.5,203.8 335.5,203.8 335.5,203.8 	"/>
	<path class="st0" d="M343.9,375.8L343.9,375.8c-5-2.7-10.1-5.3-15.1-8l0,0c-1.1-0.8-2.3-1.6-3.4-2.4l0.1,0.1
		c-0.2-0.2-0.5-0.4-0.7-0.6c-9.2-6.6-15.8-14.2-20-22.7c-7.8-15.5-6.4-34-5.3-41.9c1.6-11.1,4.2-12.9,11.2-39.7
		c1.9-7,3.3-12.9,4.2-16.8l0.1-0.1c1.7-5.1,5.4-14.6,5-15.3s-2.9,2.2-4.3,3.4h0c0,0,0,0,0,0c-0.3,0.2-0.6,0.4-0.9,0.6
		c-2.5,1.7-5,3-7.3,3.9c4.3-0.9,3.9,1.7,3.2,4.3c-2.4,9.1-5.5,18.2-7.3,27.4c-3.4,18.1-6,36.3-9,54.5c-1.6,9.8,0.4,19.5,6,27
		c5.1,6.9,12.9,11.8,19.8,17.2c4,3.1,8.6,5.3,13,7.8 M315.7,231.7C315.7,231.7,315.7,231.7,315.7,231.7
		C315.7,231.7,315.7,231.7,315.7,231.7C315.7,231.7,315.7,231.7,315.7,231.7z M330.9,371.7c-0.7-0.5-1.4-1.1-2.1-1.6
		C329.5,370.6,330.2,371.1,330.9,371.7c0.2,0.2,0.4,0.4,0.6,0.6C331.3,372.1,331.1,371.8,330.9,371.7z M334.4,373.6
		c-0.2-0.1-0.4-0.2-0.7-0.2C334,373.5,334.2,373.6,334.4,373.6L334.4,373.6z"/>
	<path class="st0" d="M85.1,152.9c4.2-3.8,8.3-7.6,12.5-11.4c0.2-0.3,0.4-0.7,0.6-1c-7.9,0.2-11,6-13.8,12c-0.1,1.9-0.2,3.9-0.2,5.8
		c-0.3,0.9-0.5,1.7-0.8,2.6c-0.4-0.9-1-1.7-1-2.6c-0.9-10.1-2.2-20.3-2.3-30.4c0-4,2.7-8,4.2-12c0.1-0.2,0.3-0.3,0.4-0.5
		c3.9-3.4,7.9-6.7,11.7-10.2c1.5-1.4,2.9-3.3,3.5-5.3c3.3-11.6,5-23.8,9.7-34.7c4.3-10.3,10.9-19.8,17.8-28.7
		c3.4-4.4,7.4-7.8,14-11.2c6.7-3.4,11.4-5.3,20.5-7.8c8.9-2.4,24.9-6.8,38.6-4.7c13.7,2.1,19.6,4.8,29.2,8
		c18.1,6.1,34.1,16.2,48.5,28.7c0.1,0.1,0.3,0.3,0.5,0.5c12.5,11,19.6,21.9,26,31.8c3.2,5,6.9,11.2,9.4,15.4c1.2,2,2.4,4.1,3.6,6.1
		c3.8,6.6,5.3,12.4,6,16.4c1.8,10.1,1.5,16.2,2.3,23.4c0.3,2.8,1.5,5.6,1.8,8.4c0.1,1.4,0.1,2.5-0.1,3.5c-2.2-0.1-3.4-1.1-6.7-0.4
		c-3.9,1.4-6.3,2-9.2,5.2c-1.5,1.2-2.7,2.3-3.7,4.7c-1.3,3.3-2,9.4,0.1,15.8c0.4,1.2,2.2,2.9,3,2.9c0.8,0,1.3-1.1,2.2-4
		c1.4-4.6,0-6.9,1.8-9.1c0.9-1.1,2.4-1.9,2.8-1.6c0.5,0.4-0.6,2.2-1.1,4.6c-0.4,2.3-0.9,5.2-1.1,8.4c0.6,1.8,1.8,4.4,4,6.6
		c0.8,0.7,1.7,1,2.1,1.8c0.6,1.3,1.4,2.7,1.3,4.2c-0.1,0.6-0.3,1-1.2,0.8s-1.5-2.4-2.2-3.6c-0.2-0.3-0.6-0.7-1.2-0.7
		c-0.5,0.1-6.1,2.7-7.9,5.3c-1,1.3,1.6,7.4,2.3,7.8s4,0,5.2-0.5s0.6-1.3,1.4-1.6s0.6,1.3,0.9,1.5s1.5-0.5,1.1-0.2s3.9-3.6,5.9-5.5
		c0-0.2,0.1-0.4,0.1-0.6c2.6-6.2-2-9.9-4.9-14.2c-0.3-0.5-0.1-1.4-0.2-2.1c0.6,0.3,1.5,0.4,1.8,0.9c2.6,4.1,5.1,8.3,7.6,12.5
		c-0.1,0.8-0.1,1.6-0.2,2.3c0.8-0.9,2.1-1.8,2.6-2.8c-0.1,0.9-0.2,1.8-0.3,2.7c-0.1,1.1,0,2.3,0,3.5c0.3,0,0.7-0.1,1-0.1
		c0.1-0.3,0.1-0.5,0.2-0.8c0.2-0.7,0.3-1.3,0.5-2c0-0.3,0-0.6,0.1-0.9c-0.4-2.2-0.7-4.4-1.1-6.7c0,0.3-0.1,0.7-0.1,1
		c0-3.5-0.3-7.1-0.2-10.6c0-2.1,0.7-4.2,1-6.3c0.8,1.5,1.8,2.9,2.5,4.5c-1.1-4.5-2.1-8.9-3.2-13.4c-0.6-0.5-1.2-1-1.9-1.5
		c0-0.5,0-0.9,0-1.4c0.3,0.1,0.5,0.2,0.8,0.4c0.8,0.4,1.4,1.3,2.1,2c6.2,7.7,5.8,16.6,4.4,25.6c-0.1,0.4-0.2,0.8-0.3,1.3
		c-0.1-0.5-0.2-0.8-0.3-1.2c-0.1-0.7,0.1-0.9-0.3-1.5c-0.8,0.2-0.7,2.3-0.9,3c0,0.3-0.1-0.1-0.1,0.2c-0.2,0.7-0.2,0.4-0.3,1.1
		c-0.1,0.3-0.1,0.5-0.2,0.8c-0.7,3.5-1.5,7.1-2.2,10.6c0.4-0.5,0.9-1,1.5-1.5l7-19.7c0.1-0.9,0.1-1.9,0.2-2.9c0-1.6,0-3.2,0-4.8
		c-0.6-2.9-0.7-6-1.8-8.7c-1.7-3.8-4.6-5.8-6.9-8.7c-0.8-0.5-1.7-1-2.5-1.5c0.1-15.9,0.4-31.9-6.6-46.4
		c-10.4-21.4-21-37.8-27.7-45.6c-0.7-0.8-2-2.3-3.9-4.3c-4.9-5.3-20.1-20.9-45.6-34.9c-7.5-4.1-15.4-7.8-23.7-10.9
		c-20.2-7.7-41-8.8-61.6-3.8c-20.9,5-40,15.1-53.3,32.3c-7.7,10-13.1,22.2-17.9,34.1c-3.9,9.7-5,20.6-8,30.7
		c-1.8,5.9-5,11.4-7.6,17.1c-0.1,0.4-0.2,0.7-0.2,1.1c-0.6,2.7-1.2,5.4-1.8,8.1c2.5,12.6,5.6,25,7.3,37.7c0.8,5.7-2,12-1.3,17.8
		c1.4,11.4,4.2,22.6,6.4,33.8c0.4,2.2,0.9,4.5,1.4,6.7c0,0.4,0,0.8,0,1.2c0,0.9,0,1.8,0,2.7c0-0.9,0-1.8,0-2.7
		c-0.4,2.1-1.2,4.3-1.1,6.4c0.1,4.9,0.6,9.9,0.9,14.8c0.5,2.3,1,4.7,1.5,7c0.3,2.1,0.7,4.2,1.3,6.3c2.9,14.3,5.8,28.6,9.5,42.8
		c1.4,5.5,6.6,9.9,10,14.9l0,0c0.3,0.3,0.6,0.5,0.9,0.8c10.7,2.4,21.5,4.7,32.2,7.2c0.5,0.1,1.1,1.3,1.1,1.9
		c-1.5,16.5-2.8,33.1-4.9,49.5c-0.3,2.5-4,4.5-6.1,6.8c-1.3,0.6-2.7,1.3-4,1.9c-1.2,0.5-2.4,1.1-3.5,1.6c0,0.1-0.1,0.1-0.2,0.2
		c0.1,0,0.1-0.1,0.2-0.2c-0.1,0.1-0.3,0.2-0.4,0.2c0,0,0,0,0,0c-16.3,3.2-32.8,5.8-49,9.8c-10.7,2.6-20.9,7.3-31.4,11l-10.1,7.9
		c8.1-4.4,16.6-8,25.3-11.2c10.3-3.8,21.7-4.3,32.5-6.8c12.1-2.8,24.1-6.1,36.1-9.1c1.9-0.5,3.9-0.8,5.8-1.2
		c-0.8,1.8-1.2,3.8-2.4,5.2c-7.1,9.2-14.5,18.3-21.5,27.6c-1.2,1.6-1.4,3.9-2,5.9c2-0.7,4.5-0.8,5.9-2.1c5.9-6,11.3-12.4,17.1-18.5
		c9.2-9.9,9.5-22.4,10.7-34.7c0.6-5.7,1.5-11.4,2.4-17.1c0.2-1,0.8-2,1.2-3c0.6,0.9,1.1,1.8,1.7,2.6c0.7,0.9,1.5,1.7,2.3,2.6
		c0.3-1.1,0.9-2.1,0.9-3.2c0-5.3,0.3-10.6-0.4-15.9c-0.8-6.7,1.4-9.6,8.3-8.3c1.1-0.6,2.2-1.2,3.3-1.8c0,0,0,0,0,0
		c4.5-1.1,9.5-1.2,13.4-3.4c7.7-4.3,14.9-9.7,22.2-14.7c0.4-0.3,0.4-1,0.6-1.5c-0.7-0.2-1.5-0.8-2-0.6c-8.1,2.7-16.3,5.2-24.3,8.3
		c-4.1,1.5-7.8,3.9-11.7,5.9c0.6-0.2,1.2-0.3,1.8-0.5c-0.6,0.2-1.2,0.4-1.8,0.5c-1.9,0.3-3.7,0.6-5.6,0.8c-4.7,0.5-9.3,1.1-14,1.6
		c-9.7-2.4-19.7-4.1-29.1-7.4c-7.7-2.7-12-16.9-10.7-28.3c0.5-4.1-1-8.3-1.3-12.5c-0.4-5.7-0.6-11.5-0.9-17.3
		c-0.2-4.1-1.1-8.2-0.7-12.2c0.2-1.8,1-3.6,1.9-5.4c-1,0.9-2.1,1.8-3.1,2.8c-0.5,0.5-1.1,0.9-1.6,1.3c-4.8-10.5,1-18.6,6.2-26.8
		c0.2-0.2,0.3-0.4,0.5-0.6c0.6-3.8,1.2-7.7,1.8-11.5c0.3-1.6,0.6-3.1,1-4.7c-0.1-0.7-0.3-1.4-0.4-2.1c-3.4-3-1.9,1.5-2.1,1.5
		c-1.5-0.4-2.8-1-4.2-1.6c-1-1-1.9-1.9-2.9-2.9c-0.5,0-1,0-1.5,0c-1-3.5-2.1-7-3.1-10.4c-0.2-0.3-0.4-0.5-0.6-0.8l0,0
		c-0.2-0.5-0.5-1-0.7-1.5l0,0.1c-0.2-0.9-0.6-1.9-0.6-2.8c0-3.4-1.1-7.6,0.4-10.1c2.4-3.9,7.3-6.2,10-10c4.5-6.3,8.7-13,11.7-20.1
		c2.2-5.1,11.5-8.1,5.4-16c-1.2-1.5-2.6-2.9-3.9-4.4c-1.2,1.6-3.7,3.4-3.4,4.6c0.4,2,2.6,3.7,4.1,5.5c0.1,0.8,0.1,1.6,0.2,2.3
		c-0.2,0.2-0.4,0.4-0.6,0.6c0,0,0.1-0.1,0.1-0.1c-0.6,0.6-1.2,1.2-1.8,1.8c0,0,0,0,0,0 M111.5,139.6c-0.9,0.6-1.9,1.2-2.8,1.9
		c-3.5-0.4-7-0.7-10.5-1.1c-0.2,0.3-0.4,0.7-0.6,1c-4.2,3.8-8.3,7.6-12.5,11.4c0,2.2,0,4.4-0.1,6.6 M98.2,158.2
		C98.2,158.2,98.2,158.2,98.2,158.2C98.2,158.2,98.1,158.2,98.2,158.2L98.2,158.2z M183.2,12.5L183.2,12.5c-0.7,0-1.5-0.1-2.2-0.1
		C181.7,12.4,182.4,12.5,183.2,12.5z M175.2,12.7c0.5,0,1.1,0,1.6-0.1C176.3,12.7,175.8,12.7,175.2,12.7
		C175.2,12.7,175.2,12.7,175.2,12.7z M173.8,14.5c0.5,0,1-0.1,1.5-0.1C174.8,14.4,174.3,14.4,173.8,14.5c-4.9,1.4-9.9,2.7-14.8,4.1
		C163.9,17.1,168.9,15.8,173.8,14.5z M116.7,43.2c0.4-0.5,0.8-1,1.2-1.5c2.1-1.8,4.2-3.6,6.3-5.4c0.2-0.2,0.5-0.5,0.7-0.7
		c0.9-0.7,1.9-1.5,2.8-2.2c0,0,0.1-0.1,0.1-0.1c1.3-0.9,2.7-1.8,4-2.7c0.4-0.3,0.7-0.5,1.1-0.8c0.8-0.5,1.6-1.1,2.4-1.6
		c0.1-0.1,0.3-0.1,0.5-0.1c2.1-1.3,4.3-2.5,6.4-3.8c0.3-0.1,0.5-0.2,0.8-0.3c-0.3,0.1-0.5,0.2-0.8,0.3c-2.1,1.3-4.3,2.5-6.4,3.8
		c-0.2,0-0.3,0.1-0.5,0.1c-0.8,0.5-1.6,1.1-2.4,1.6c-0.4,0.3-0.7,0.5-1.1,0.8c-1.3,0.9-2.7,1.8-4,2.7l-0.1,0.1
		c-0.9,0.7-1.9,1.5-2.8,2.2c-0.2,0.2-0.5,0.5-0.7,0.7c-2.1,1.8-4.2,3.6-6.3,5.3C117.5,42.1,117.1,42.7,116.7,43.2
		c-1.4,2.2-3,4.3-4.4,6.5C113.6,47.5,115.2,45.3,116.7,43.2z M90.6,105.5L90.6,105.5c-0.2,0.2-0.4,0.5-0.6,0.7
		C90.3,106,90.5,105.8,90.6,105.5z M82.9,164.7c0.5-1.6,0.9-3.2,1.4-4.7l0.2-0.1h0l-0.2,0.1C83.9,161.5,83.4,163.1,82.9,164.7
		C82.9,164.7,82.9,164.7,82.9,164.7z M84.6,165.6c-0.1-0.1-0.1-0.3-0.2-0.4v0C84.5,165.3,84.5,165.4,84.6,165.6z M84.6,207.5
		c-0.2-4-0.4-7.9-0.6-11.9C84.1,199.6,84.3,203.5,84.6,207.5c0,0.1,0.1,0.1,0.1,0.2C84.6,207.6,84.6,207.5,84.6,207.5z M86.7,159.9
		c-0.2,0-0.5,0.1-0.7,0.1l0,0C86.2,159.9,86.5,159.9,86.7,159.9C86.7,159.9,86.7,159.9,86.7,159.9z M90,153.5
		c0.8-1.5,1.6-3.1,2.4-4.6C91.6,150.4,90.8,152,90,153.5c-1,2.1-2,4.2-2.9,6.3C88.1,157.8,89,155.6,90,153.5z M87.1,170.6
		c1.4-1.1,2.7-2.1,4.1-3.2c1.6-2,3.1-3.9,4.7-5.9c-1.6,2-3.1,3.9-4.7,5.9C89.8,168.5,88.5,169.6,87.1,170.6z M88.2,187.7
		C88.2,187.7,88.2,187.7,88.2,187.7L88.2,187.7C88.2,187.7,88.2,187.7,88.2,187.7z M89.9,188.4c-0.5-0.2-1-0.5-1.5-0.7c0,0,0,0,0,0
		C88.8,187.9,89.3,188.2,89.9,188.4L89.9,188.4z M91.9,244.4L91.9,244.4c0.5,1,1,2,1.6,3C92.9,246.4,92.4,245.4,91.9,244.4z
		 M90.4,229.5c1-8.7,2.1-17.4,3.1-26.2c0,0,0,0,0,0C92.4,212,91.4,220.8,90.4,229.5z M94.1,201.4C94.1,201.4,94.1,201.3,94.1,201.4
		C94.1,201.3,94.1,201.3,94.1,201.4L94.1,201.4z M95.7,254.9c0.1-1.7,0.1-3.5,0.2-5.2c-0.6-0.3-1.2-0.6-1.7-1c0,0,0,0,0,0
		c0.6,0.3,1.2,0.6,1.7,1c0,0,0,0,0,0C95.8,251.5,95.8,253.2,95.7,254.9z"/>
	<path class="st0" d="M143.9,327.2c-0.8,0-1.6,1-2.4,1.5c4.7-0.5,9.3-1.1,14-1.6C151.6,327.1,147.8,327,143.9,327.2z"/>
	<path class="st0" d="M108.2,236.1c-1.2-0.5-2.6-0.9-3.8-1.4c0.8,1.2,1.6,2.3,2.5,3.5c0.3,0.4,0.7,0.6,1.1,0.9
		c2.5,0.1,4.9,0.2,7.4,0.2C113,238.3,110.6,237.1,108.2,236.1z"/>
	<path class="st0" d="M294.7,234.4c-2.2,0.4-4.5,0.7-6.6,1.3c-1.4,0.4-3.3,1-3.8,2c-3.9,7.8-6.4,16.5-11.4,23.5
		c-5.5,7.7-12.4,14.8-20,20.3c-9.8,7.1-20.9,12.3-31.4,18.4c-0.5,0.3-0.7,1.1-1,1.7c0.6,0.1,1.2,0.1,1.8,0.1
		c9.5,0.5,27.1-1.8,48.9-25.4c0.9-0.6,2.3-1.7,3.8-3.1c6-5.9,7.2-12.9,8.6-16.8c2.9-8.4,5.5-16.6,14.7-20.2
		C297,235.6,295.9,235,294.7,234.4z"/>
	<path class="st1" d="M214.6,364.2c-2.7,0-5,5-7.6,7.5c-5.4,5.2-6.7,9.4-8.1,11.7s-1.2,4.7-4.2,6.4c-0.3,0.2-0.8,0.5-1.4,0.6
		c-2.9,0.6-6.9-4.4-10.2-11.8c-2.6-5.6-6.3-12.7-8.7-12.1c-1.4,0.3-2.6,3.5-2.1,5.8c3.7,15.8,10.7,43,11.8,47.1
		c0.1,0.4,0.4,1.8,1.2,2.1c1.1,0.4,2,0.5,3.4-2c0.8-1.3,1-2.4,1.4-4.3c0.2-0.9,0.2-3.5,1-4.1c0.8-0.5,1.7-1,2.8-0.3
		c1.1,0.7,4.5,4.1,7.1,5.7c3.8,2.4,8.1,6.3,11.8,5.9c3.1-0.4,5.6-6,8.3-9.3c4.5-11.1,6.2-22.8,2.7-34.3
		C222.3,373.6,217.3,364.2,214.6,364.2z M194.9,389.9C194.9,389.9,194.9,389.9,194.9,389.9c0,1-0.1,2,0,3.1
		C194.8,392,194.9,391,194.9,389.9z"/>
	<path class="st0" d="M108.6,222.3c-0.6,0.6-0.8,1.6-1,2.5c0,0.2,1.3,0.9,1.5,0.7c2.9-2.4,5.8-5,8.2-7.1c-0.6-2.7-0.9-3.7-1.2-4.8
		c-0.7,0.9-1.2,1.9-2,2.8C112.4,218.4,110.4,220.2,108.6,222.3z"/>
	<path class="st0" d="M154.5,240.4c-9.9-1.3-19.8-2.4-29.7-3.6c-0.8,0.1-1.6,0.2-2.4,0.3c-0.5,0.1-1.1,0.2-1.6,0.2
		c-0.5,0.4-0.9,0.8-1.4,1.2c0.5,0,1.1,0.1,1.6,0.1c2.7-0.4,5.4-0.7,8.1-1.1c10.2,2.1,20.4,4.3,30.6,6.3c1.5,0.3,3.1,0,4.6,0
		c-1.4-0.6-2.9-1.4-4.3-1.9C158.2,241.2,156.4,240.6,154.5,240.4z"/>
	<path class="st0" d="M325.1,203.4c0,0.2-0.1,0.4-0.1,0.6c1.5-0.4,2.9-0.8,4.4-1.2c0.1-0.8,0.1-1.6,0.2-2.3
		C328,201.4,326.6,202.4,325.1,203.4z"/>
	<path class="st0" d="M333,210.3c-1.9,1.8-3.7,3.6-5.6,5.5c0.3,0.2,0.8,0.6,0.8,0.5C329.8,214.3,331.4,212.3,333,210.3z"/>
	<path class="st0" d="M333,210.3C333,210.3,333,210.3,333,210.3C333,210.3,333,210.3,333,210.3C333,210.3,333,210.3,333,210.3z"/>
	<path class="st0" d="M238.1,25.8c0.2,0.2,0.4,0.4,0.6,0.6c0,0,0,0,0,0C238.5,26.1,238.3,25.9,238.1,25.8c-0.1-0.1-0.3-0.1-0.4-0.2
		C237.8,25.6,238,25.7,238.1,25.8z"/>
	<path class="st0" d="M198,127.6c0.3,0.1,0.7,0,2.3,0c-2.5-1.2-3.8-2.1-5.2-2.6c-1.9-0.6-4-0.9-6-1.3c1.5,0.7,2.9,1.3,4.4,2
		C195,126.4,196.4,127,198,127.6z"/>
	<path class="st0" d="M189.6,128.1L189.6,128.1c-0.6-0.2-1.2-0.4-1.7-0.6c0,0,0,0,0,0c-0.6-0.2-1.2-0.4-1.8-0.6c0,0,0,0,0,0
		c-0.5,0-1-0.1-1.5-0.1c-0.9-0.1-1.8-0.2-2.6-0.2c-2.1-0.1-4.2-0.3-6.3-0.4c0.3-0.4,0.6-1.2,0.9-1.3c1.8-0.3,3.7-0.4,5.6-0.6
		c-1.8-0.3-3.6-0.5-5.4-0.8c2-0.1,4-0.1,6-0.2c1.6,0,3.2,0,4.7,0c-1.5-0.4-2.9-0.8-4.4-1.2c-1.8-0.7-3.5-2-5.3-2
		c-6.7,0.1-13.8-0.6-17.7,6.7c-0.4,0.8-0.4,1.9-0.4,2.9c0,0.3,0.9,0.5,1.4,0.8c0.1-0.8-0.2-1.8,0.2-2.3c1.1-1.3,2.5-2.5,3.8-3.7
		c-0.4,0.6-1.2,1.2-1.2,1.8c0.1,1.7,0.5,3.3,0.8,5c0.5-0.3,1.1-0.4,1.6-0.8c1.3-0.9,2.5-1.9,3.7-2.9c-0.3,1.3-0.6,2.5-0.9,3.8
		c0,0,0,0.1,0,0.1c-0.6,0.9-1.1,1.9-1.7,2.8c0,0,0,0.1,0,0.1c-1.2-0.5-2.4-1-3.7-1.4c-0.5-0.1-1.3-0.1-1.5,0.2c-0.6,0.9-1,2-1.4,3
		c0.4,0,0.8,0.1,1.2,0.1c1.1,0,2.1-0.1,3.2-0.2c-0.6,0.8-1.4,1.5-1.8,2.4c-0.3,0.6-0.1,1.5-0.1,2.3c0,0,0,0,0,0c0,0.6,0,1.1,0,1.7
		c1.7-0.2,3.4-0.4,5.1-0.6c1.3-3.6,2.6-7.1,3.8-10.7c-1.3,3.6-2.6,7.1-3.8,10.7c0.1,0.3,0.2,0.6,0.3,1c-0.1-0.3-0.2-0.6-0.3-1
		c-1.7,0.2-3.4,0.4-5.1,0.6c1.8,0.2,3.7,0.3,5.5,0.5c0,0,0,0,0,0c4-0.7,8-1.5,12-2.2c-0.4,0-0.8,0-1.2-0.1c1.7-1.8,3.1-4.1,5.1-5.2
		c2.7-1.5,6.1-2,5.2-6.3c0.4-0.1,0.8-0.2,1.2-0.3C190.8,128.6,190.2,128.4,189.6,128.1z"/>
	<path class="st0" d="M200.3,128.7c0.3,0.2,0.5,0.4,0.8,0.5c4.2,2,8.5,4.1,12.7,6.1c0.3,0.2,0.9-0.1,1.3-0.1c0-0.3,0-0.9-0.1-1
		c-4.6-2-9.3-4-13.9-6C200.8,128.4,200.6,128.5,200.3,128.7z"/>
</g>
</svg>
