<?xml version="1.0" encoding="utf-8"?>
<!-- Generator: Adobe Illustrator 19.2.1, SVG Export Plug-In . SVG Version: 6.00 Build 0)  -->
<svg version="1.1" id="Layer_2" xmlns="http://www.w3.org/2000/svg" xmlns:xlink="http://www.w3.org/1999/xlink" x="0px" y="0px"
	 viewBox="0 0 53.5 59.3" style="enable-background:new 0 0 53.5 59.3;" xml:space="preserve">
<style type="text/css">
	.st0{fill:#E2E2E2;}
</style>
<path class="st0" d="M26.7,52.8c-1,0-2-0.1-2.9-0.2L1.2,59.3l4.3-17.4c-3-4.3-4.8-9.5-4.8-15.1c0-14.3,11.7-26,26-26s26,11.7,26,26
	S41,52.8,26.7,52.8z M26.7,8.8c-9.9,0-18,8.1-18,18c0,5.1,2.1,9.7,5.5,13l-2,8.6l10.9-3.9c1.1,0.2,2.3,0.3,3.5,0.3
	c9.9,0,18-8.1,18-18S36.6,8.8,26.7,8.8z"/>
</svg>
