<?xml version="1.0" encoding="utf-8"?>
<!-- Generator: Adobe Illustrator 19.2.1, SVG Export Plug-In . SVG Version: 6.00 Build 0)  -->
<svg version="1.1" id="Layer_1" xmlns="http://www.w3.org/2000/svg" xmlns:xlink="http://www.w3.org/1999/xlink" x="0px" y="0px"
	 viewBox="0 0 445.5 460" style="enable-background:new 0 0 445.5 460;" xml:space="preserve">
<style type="text/css">
	.st0{fill:none;}
	.st1{fill:#888887;}
	.st2{fill:#888888;}
	.st3{fill:#7BB9DF;}
	.st4{fill:#77C9B3;}
</style>
<g>
	<path class="st0" d="M158.5,157.4c-0.4-1.7-0.7-3.4-1-5.1c0.3,1.7-0.1,0,0,0c-0.8-4.1-9.4-8.4-12.5-7
		C153,149.2,155.2,150.2,158.5,157.4z"/>
	<path class="st0" d="M153.8,162.8c1.7-1.3,3.1-2.5,5.2-2.1c-0.6-3.5-8.8,2.2-11.5,5.7c-4,5.3-6.6,6.8-4.8,14.3
		c3.1-3,1.1-8.9,4.4-12.9C149.1,165.5,151.5,164.8,153.8,162.8z"/>
	<path class="st0" d="M164.9,193.5c-0.9-0.4-3.1,2.5-4.6,2.1c-1.5-0.4-8.5-7.5-13.5-10.3c2.9,4.3,9.2,9.5,13.5,12.4
		C167.5,202.7,165.8,193.8,164.9,193.5z"/>
	<path class="st0" d="M133.7,178.5c0-3.7-0.8-25.5-0.8-25.6C128.9,158.4,131.6,172.7,133.7,178.5z"/>
	<path class="st0" d="M162.9,188c1.5-0.6-0.1-3.4-2.6-3.4S161.4,188.5,162.9,188z"/>
	<path class="st0" d="M137,166.9c-0.2-0.6-1.5-0.8-2.3-1.2c-0.3,2.7-0.7,5.3-1,8c2.9,5.4,5.9,10.8,8.8,16.1c0.2,0.1,0.5,0.2,0.7,0.3
		c0-0.2-0.1-0.4-0.2-0.7C141,181.9,139.1,174.4,137,166.9z"/>
	<path class="st0" d="M267.2,372.7c-2.3-9.1-3.9-9.4-4.4-21.1c-0.9-24.1,8-47-17-61c-16-9-30.7-12.6-44.1-25.6
		c-12.3-11.9-22-26.8-34.3-38.2c-7.9,12.2,1.7,34.5,0.1,48.4c-2.3,19.7-10.6,40.2-17.3,58.8c-5.9,16.5-9.2,25.8,6.6,36.2
		c9.4,6.2,22.1,9.9,32.3,13.2c12.2,4,26.7-1.8,42.2,2.7c8,3.5,2.2,11.9,8.2,10.4c7-1.8,7.6-7.8,8.7-14.6c13,3.7,12.8,21.2,26.4,23.9
		c0.2-2.3,0.5-6.7-1.2-14.7S268.7,378.5,267.2,372.7z"/>
	<path class="st0" d="M188.3,201.5c1.3,3.8-0.7,7.9-1.5,11.9c-1.5,7.8,1.9,15.8,6.3,22.4c13.4,20.4,35.2,32.9,58.2,42.1
		c6.7,2.7,13.5,5.1,20.2,7.3c8.2,2.8,16.6,5.3,25.3,6.2c4.3,0.4,8.7,0.4,12.9-0.3c2.6-0.5,6.6-0.8,8.6-2.6
		c4.5-4.1,5.3-13.1,4.6-18.7c-0.8-6.6-3.9-12.9-9.1-17.1c2.4-0.3,4.8-0.7,7.3-1c2.6-3.8,1.9-9.4-1.4-12.6c-11.6-1.2-23.4,0.7-34,5.4
		c-1.8-1.6-1.1-4.8,0.8-6.3c1.9-1.5,4.4-1.9,6.8-2.1c12.2-1.2,24.6-1.7,36.9-1.4c3.1-3.7,4.6-8.7,4.1-13.5c-0.2-2.2-0.9-4.4-0.6-6.6
		c0.3-2.2,2.1-4.4,4.4-4.2c-6.5-5.3-16.6-5.5-23.3-0.6c-1.2-1-2.4-1.9-3.6-2.9c3.5-10.1,15.1-16.7,25.6-14.4
		c1-8.4-3.1-16.5-6.4-24.4c-3.3-7.8-5.8-17.1-1.7-24.6c4-7.3,13.3-10.8,16.5-18.5c2.4-5.6,0.9-12-0.8-17.8
		C339,88.8,331,71.2,318.9,56.5c-22.5-27.4-58.5-42.3-94-42.1c-22.5,0.1-45.3,6.2-64,18.8c-18.7,12.6-33.1,31.9-38.1,53.9
		c-4.8,21.2-0.9,43.2,3.1,64.6c0.3-8.5,9.9-14.5,18.3-13.2c8.4,1.3,15.2,7.9,19.4,15.3c2,3.4,3.5,7.3,2.9,11.2s-4.2,7.5-8.1,6.8
		c0.4-3.1,0.7-6.2,1.1-9.3c-4.1,2.9-6.9,7.5-7.5,12.4l3.5-1.6c2.6,2.3,4.2,5.6,4.5,9c2.5-4,5.9-7.5,9.9-10
		c-0.2,9.9,1.5,19.8,4.8,29.1C176.9,195.8,186.4,195.9,188.3,201.5z M317.6,211.4c0.1-0.3,0.3-0.4,0.4-0.5c0,0,0.9-0.5,3.1-2.2
		c0.3-0.2,0.3-0.2,0.3-0.2c0.1,0,0.1-0.1,0.2-0.1c0.1,0,0.1-0.1,0.5-0.3c2-1.2,4.4-1.5,6.7-1.1c1.2,0.2,2.4,0.7,3.3,1.5
		c0.9,0.8,2.2,2.5,1.5,3.2c-0.7,0.7-2.5-0.1-2.7,0.2c-1.2,1.3-1.1,5.1-1.8,6.6c-0.3,0.5-0.7,0.9-0.7,0.9c-0.2,0.2-0.5,0.4-0.7,0.5
		c-0.4,0.5-1.3,1.2-2.4,1.2c-0.7,0-1.2-0.3-3.4-2.5c-1.8-1.9-3.2-4-4.2-6.4C317.7,212,317.5,211.7,317.6,211.4z M261.8,145.8
		c1.2-0.6,2.3-1.4,3.6-1.7c8.3-2.1,16.6-4.3,25-6.1c1.7-0.4,3.7,1,5.6,1.6c-1,1.2-2,2.4-3,3.6c-1.1,1.5-2,3-3,4.5
		c0.4,0.4,0.8,0.8,1.2,1.2c-0.5,0.3-0.9,0.6-1.4,0.9c-0.3,0.3-0.7,0.6-1,1c-0.1,0.2,0,0.3,0.1,0.5c0.7,0.5,1.4,1.1,2.1,1.6
		c0.8,2.6,1.6,5.3,2.4,7.9c0.5,0.6,1,1.3,1.5,1.9c0.3,0,0.6,0.1,0.9,0.2c-2.7,0.4-5.3,0.8-8,1.2c-0.8-1.1-1.6-2.1-2.4-3.2
		c-0.5,0-1-0.1-1.5-0.1c-0.4,0.1-0.9,0.2-1.3,0.3c-3-0.7-5.9-1.5-8.9-2.2c-4.2-1.6-8.3-3.1-12.4-4.8c-0.7-0.3-1-1.2-1.6-1.9
		c0.9-0.4,2-1.2,2.6-1c4.2,2,8.4,4.2,12.5,6.4c0.9,0,1.8,0,2.8,0c1.5-3.7-2.6-8.4,2.1-11.6c-0.6,0-1.3-0.1-1.9-0.1
		c-1.2,0.2-2.4,0.5-3.5,0.7l-0.8,0.3c-0.4,0.2-0.9,0.4-1.3,0.6c-0.1-0.1-0.1-0.3-0.2-0.4c0.4-0.1,0.9-0.1,1.3-0.2l1-0.3
		c1.2-0.6,2.4-1.2,3.5-1.8c2.3-0.1,4.6-0.1,6.9-0.2c0-0.6-0.1-1.1-0.1-1.7c-0.2,0-0.4-0.1-0.6-0.2c-7.4,1.7-14.8,3.3-22.2,5
		c-1.7,0.7-3.4,1.4-5,2.2C258.5,148.5,260.1,147.1,261.8,145.8z M266.7,149.5c0.1-0.2,0.2-0.4,0.3-0.6c0.2,0.1,0.5,0.2,0.7,0.3
		c-0.2,0.1-0.4,0.3-0.6,0.4C267,149.6,266.8,149.5,266.7,149.5z"/>
	<path class="st1" d="M392.2,425c-8.5-15.5-20.5-27.9-35.8-36.5c-6.4-3.6-14.2-4.9-21.5-6.6c-2-0.5-6.3,1.4-6.5,2.7
		c-0.6,3.8-1.2,10,0.9,11.4c11.3,7.7,18.6,18.9,26.9,29c4.1,5,8.7,7.4,15.1,6.5c2-0.2,4,0,6,0c3.7,0,7.3-0.1,11,0
		C393.5,431.7,394.5,429.2,392.2,425z"/>
	<path class="st1" d="M267,148.9c-0.1,0.2-0.2,0.4-0.3,0.6c0.1,0,0.3,0.1,0.4,0.1c0.2-0.1,0.4-0.3,0.6-0.4
		C267.5,149.1,267.2,149,267,148.9z"/>
	<path class="st1" d="M272,147.1c0.1,0.1,0.1,0.3,0.2,0.4c0.4-0.2,0.9-0.4,1.3-0.6l0.8-0.3l-1,0.3C272.9,147,272.4,147,272,147.1z"
		/>
	<path class="st1" d="M284,142.7c0.2,0.1,0.4,0.2,0.6,0.2c0,0.6,0.1,1.1,0.1,1.7c-2.3,0.1-4.6,0.1-6.9,0.2c-1.1,0.6-2.3,1.2-3.5,1.8
		c1.1-0.2,2.3-0.5,3.5-0.7c0.6,0,1.3,0.1,1.9,0.1c-4.7,3.2-0.6,7.9-2.1,11.6c-1,0-1.9,0-2.8,0c-4.1-2.2-8.3-4.4-12.5-6.4
		c-0.6-0.2-1.7,0.6-2.6,1c0.6,0.7,0.9,1.6,1.6,1.9c4.1,1.7,8.2,3.2,12.4,4.8c3,0.7,5.9,1.5,8.9,2.2c0.4-0.1,0.9-0.2,1.3-0.3
		c0.5,0,1,0.1,1.5,0.1c0.8,1.1,1.6,2.1,2.4,3.2c2.7-0.4,5.3-0.8,8-1.2c-0.3-0.1-0.6-0.2-0.9-0.2c-0.5-0.6-1-1.3-1.5-1.9
		c-0.8-2.6-1.6-5.3-2.4-7.9c-0.7-0.5-1.4-1.1-2.1-1.6c-0.1-0.2-0.2-0.3-0.1-0.5c0.3-0.4,0.7-0.7,1-1c0.5-0.3,0.9-0.6,1.4-0.9
		c-0.4-0.4-0.8-0.8-1.2-1.2c1-1.5,1.9-3,3-4.5c1-1.2,2-2.4,3-3.6c-1.9-0.6-3.9-2-5.6-1.6c-8.4,1.8-16.7,4-25,6.1
		c-1.3,0.3-2.4,1.1-3.6,1.7c-1.7,1.3-3.3,2.7-5,4.1c1.6-0.8,3.3-1.5,5-2.2C269.2,146,276.6,144.4,284,142.7z"/>
	<path class="st2" d="M322,218.5c2.2,2.3,2.7,2.5,3.4,2.5c1.1,0,1.9-0.7,2.4-1.2c0.2-0.1,0.4-0.3,0.7-0.5c0,0,0.4-0.4,0.7-0.9
		c0.7-1.4,0.6-5.3,1.8-6.6c0.2-0.2,2,0.5,2.7-0.2c0.7-0.7-0.6-2.4-1.5-3.2c-0.9-0.8-2.1-1.2-3.3-1.5c-2.3-0.4-4.7-0.1-6.7,1.1
		c-0.4,0.3-0.5,0.3-0.5,0.3c-0.1,0-0.1,0.1-0.2,0.1c0,0,0,0-0.3,0.2c-2.2,1.7-3.1,2.2-3.1,2.2c-0.1,0.1-0.3,0.2-0.4,0.5
		c-0.1,0.3,0.1,0.6,0.1,0.7C318.8,214.5,320.2,216.7,322,218.5z"/>
	<path class="st3" d="M157.5,152.3C157.4,152.3,157.8,154,157.5,152.3L157.5,152.3z"/>
	<path class="st2" d="M282.2,378.8c-0.2,3.7-0.6,7.4-1,11.1c-10-10.3-7-34.3-9-47.9c-2.1-13.8,2.6-20.9,2.6-33.7
		c0-27.2-56.8-24.6-71.2-45.3c8.4,7.5,26.2,11.5,36.2,15c14.5,5.1,31.5,13,47.2,14.3c1.4,0.4,2.8,0.7,4.2,1c0.1,0,0.1,0,0.2,0
		c0.3,0,0.6,0.1,0.9,0.1c1.3,0.3,2.5,0.6,3.7,0.9c0.7,0.1,1.5,0.1,2.3,0.2c0,0,0.1,0,0.1,0c0.2,0,0.5,0.2,0.8,0.2
		c0.3,0.1,0.5,0.2,0.8,0.2c2,0.5,4.1,0.8,6.2,0.8c2,0,4.1-0.2,6.1-0.6c1.9-0.4,3.8-1,5.5-1.9c1.6-0.8,3.2-1.8,4.5-3
		c0.6-0.6,1.2-1.2,1.8-1.9c0.3-0.3,0.5-0.7,0.7-1c0.3-0.4,0.4-0.9,0.8-1.2c0.1-0.1,0.2-0.2,0.2-0.2c0.3-0.3,0.4-0.8,0.5-1.2
		c0.2-0.8,0.3-1.7,0.5-2.5c0.6-2.7,1.1-5.4,1.7-8c0.6-2.7,1.1-5.4,1.7-8.1c0.5-2.7,1-5.4,1.5-8.1c0.2-1.5-1-3.3-1.6-4.9
		c0,0,2.9-2.9,3.1-3.4c0.7-1.3,1.1-2.7,1-4.2c-0.1-3.7-2.1-6.3-5.3-8c0.9-0.8,1.9-1.6,2.8-2.5c1.6-1.4,2.7,1.4,3.6,2.4
		c1.6-2.5,3.6-5.2,3.7-8.4c0-1.4-0.4-2.9,0.2-4.1c0.3-0.7,0.9-1.2,1.5-1.7c2.2-2.1,3.8-4.7,4.7-7.5c0.6-1.8-0.5-8.2,0.5-9.1
		c0,0,0.1-0.1,0.1-0.1c6.6-6.6,3.8-13.5,2.7-21.6c-0.8-6.1-1.5-12.1-2-18.2c-0.3-4,3-8.7,0.8-12.3c0,0.2,0.2,0,0.2-0.2
		c-0.4-3.1-0.8-6.2-1.2-9.3c9.1,3.2,6.8-13,6.5-17.2c-1.7-25-12.3-55-27.4-75.1c-31-41.3-93.5-52.9-140.7-37.4
		c-56.9,18.7-75.5,71.6-66,127c2.6,15,8.6,35.8,17.5,48.2c4.6,6.4,2.8,6.5,7.6,9.2c7.2,4.1,20.4-2.1,25.5,6.2
		c-5.2,0-29.5,0.7-13,7.9c6.7,2.9,13.6,0.9,13-6.9c2.9,13.2-10.5,5.7-15.2,15.6c-3.6,7.5,0.4,24.7,0.6,32.8
		c0.4,14,0.9,28.2-0.6,42.2c-1.6,14.7-4.9,30.4-13.4,42.8c-4.7,6.9-20.6,15.5-21.9,23.7c-3.2,20,35.6,18.1,48.3,21.2
		c-11.2,7.6-32.5-1.5-44.4-3.3c-7-1.1-17-3.2-30.9-2.4c-1.5,0.1-7.4,0.4-17.1,2.2c-19.4,3.6-30,5.5-40.8,12.2
		c-15.7,9.7-29.1,27.9-25.1,34.8c0.2,0.3,0.9,1.3,2.2,1.9c6.4,3.2,8-29.9,35.5-37.8c12.6-2.2,20.3-5.4,33.6-4.7
		c15.3,0.9,29.4,9.2,44.6,9.6c8.9,0.2,17.6-1.6,26.3-2.5c23.9-2.4,47,10.3,69,17.5c10.2,3.4,21.5,2.2,31.2,5.3
		c3.9,1.2,6.9,7.9,13.8,11.6c11.9,5.3,27.2,2,40,2c9.7,0,36.3,4.4,43.2-2.4C330.5,409.9,306.5,389.6,282.2,378.8z M132.9,152.9
		c0,0.1,0.8,21.9,0.8,25.6C131.6,172.7,128.9,158.4,132.9,152.9z M142.5,189.8c-2.9-5.3-5.9-10.7-8.8-16.1c0.3-2.7,0.7-5.3,1-8
		c0.8,0.4,2.1,0.6,2.3,1.2c2.1,7.5,4,15,6,22.5c0.1,0.3,0.2,0.5,0.2,0.7C143,190,142.7,189.9,142.5,189.8z M142.7,180.7
		c-1.8-7.5,0.8-9,4.8-14.3c2.7-3.5,10.9-9.2,11.5-5.7c-2.1-0.4-3.5,0.8-5.2,2.1c-2.3,2-4.7,2.7-6.7,5
		C143.8,171.8,145.8,177.7,142.7,180.7z M145,145.3c3.1-1.4,11.7,2.9,12.5,7c0.3,1.7,0.6,3.4,1,5.1C155.2,150.2,153,149.2,145,145.3
		z M160.3,197.7c-4.3-2.9-10.6-8.1-13.5-12.4c5,2.8,12,9.9,13.5,10.3c1.5,0.4,3.7-2.5,4.6-2.1C165.8,193.8,167.5,202.7,160.3,197.7z
		 M160.3,184.6c2.5,0,4.1,2.8,2.6,3.4C161.4,188.5,157.8,184.6,160.3,184.6z M170,172.1c-4,2.5-7.5,6-9.9,10c-0.3-3.4-1.9-6.7-4.5-9
		l-3.5,1.6c0.7-4.9,3.5-9.5,7.5-12.4c-0.4,3.1-0.7,6.2-1.1,9.3c3.9,0.7,7.5-2.9,8.1-6.8s-1-7.8-2.9-11.2c-4.2-7.4-11-14-19.4-15.3
		c-8.4-1.3-18.1,4.7-18.3,13.2c-3.9-21.4-7.9-43.4-3.1-64.6c5-22,19.4-41.3,38.1-53.9c18.7-12.6,41.4-18.6,64-18.8
		c35.5-0.2,71.4,14.7,94,42.1c12,14.7,20,32.3,25.4,50.5c1.7,5.8,3.1,12.2,0.8,17.8c-3.3,7.7-12.5,11.2-16.5,18.5
		c-4.1,7.5-1.6,16.7,1.7,24.6c3.3,7.8,7.5,15.9,6.4,24.4c-10.5-2.3-22.1,4.3-25.6,14.4c1.2,1,2.4,1.9,3.6,2.9
		c6.8-4.9,16.8-4.6,23.3,0.6c-2.2-0.2-4,2-4.4,4.2c-0.3,2.2,0.3,4.4,0.6,6.6c0.5,4.8-1,9.8-4.1,13.5c-12.3-0.3-24.6,0.1-36.9,1.4
		c-2.4,0.2-4.9,0.6-6.8,2.1c-1.9,1.5-2.6,4.7-0.8,6.3c10.6-4.7,22.5-6.6,34-5.4c3.3,3.2,4,8.8,1.4,12.6c-2.4,0.3-4.8,0.7-7.3,1
		c5.2,4.2,8.3,10.6,9.1,17.1c0.7,5.6-0.1,14.6-4.6,18.7c-2.1,1.9-6,2.2-8.6,2.6c-4.3,0.7-8.6,0.8-12.9,0.3
		c-8.7-0.8-17.1-3.4-25.3-6.2c-6.7-2.3-13.5-4.7-20.2-7.3c-23-9.2-44.7-21.7-58.2-42.1c-4.4-6.6-7.8-14.6-6.3-22.4
		c0.8-4,2.8-8.1,1.5-11.9c-1.9-5.5-11.4-5.7-13.5-0.2C171.5,191.9,169.9,182,170,172.1z M274.6,405.8c-13.6-2.7-13.4-20.2-26.4-23.9
		c-1.1,6.8-1.7,12.8-8.7,14.6c-6,1.5-0.2-6.9-8.2-10.4c-15.5-4.5-30,1.3-42.2-2.7c-10.2-3.3-22.9-7-32.3-13.2
		c-15.8-10.4-12.5-19.7-6.6-36.2c6.7-18.6,15-39.1,17.3-58.8c1.6-13.9-8-36.2-0.1-48.4c12.3,11.4,22,26.3,34.3,38.2
		c13.4,13,28.1,16.6,44.1,25.6c25,14,16.1,36.9,17,61c0.5,11.7,2.1,12,4.4,21.1c1.5,5.8,4.5,10.4,6.2,18.4S274.8,403.5,274.6,405.8z
		"/>
</g>
<path class="st4" d="M238.9,336.2c-3.5,11.5-1.8,23.2,2.7,34.3c2.7,3.3,5.2,8.9,8.3,9.3c3.7,0.4,8-3.5,11.8-5.9c2.6-1.6,6-5,7.1-5.7
	s2-0.2,2.8,0.3c0.8,0.6,0.8,3.2,1,4.1c0.4,1.9,0.6,3,1.4,4.3c1.4,2.5,2.3,2.4,3.4,2c0.8-0.3,1.1-1.7,1.2-2.1
	c1.1-4.1,8.1-31.3,11.8-47.1c0.5-2.3-0.7-5.5-2.1-5.8c-2.4-0.6-6.1,6.5-8.7,12.1c-3.3,7.4-7.3,12.4-10.2,11.8
	c-0.6-0.1-1.1-0.4-1.4-0.6c-3-1.7-2.8-4.1-4.2-6.4c-1.4-2.3-2.7-6.5-8.1-11.7c-2.6-2.5-4.9-7.5-7.6-7.5S240.4,331,238.9,336.2z
	 M267.8,350.4c0.1-1.1,0-2.1,0-3.1l0,0C267.8,348.4,267.9,349.4,267.8,350.4z"/>
</svg>
