<?xml version="1.0" encoding="utf-8"?>
<!-- Generator: Adobe Illustrator 19.2.1, SVG Export Plug-In . SVG Version: 6.00 Build 0)  -->
<svg version="1.1" id="Layer_1" xmlns="http://www.w3.org/2000/svg" xmlns:xlink="http://www.w3.org/1999/xlink" x="0px" y="0px"
	 viewBox="0 0 595.3 841.9" style="enable-background:new 0 0 595.3 841.9;" xml:space="preserve">
<style type="text/css">
	.st0{fill:#77BDAB;}
	.st1{fill:#666666;}
</style>
<g>
	<g>
		<path class="st0" d="M425.7,706.2c-0.2-0.7-0.4-1.4-0.7-2l-0.1,0.1c-0.6-1.1-1.2-2.1-1.8-3.2c-3.4-6.6-7.1-11.5-9.8-14.6
			c-4.2-4.9-6.2-5.8-7.9-5.8c-2.5,0.1-4.9,2.2-7.7,6.4c-2.9,4.3-6.6,8.1-10.1,12c-0.4,0.4-2.3,0.2-2.5-0.2
			c-4.6-11.1-9.7-21.9-10.4-34.2c-0.3-5.1,1.4-5.6,5.2-4.2c7.6,3,15.2,6,22.6,9.3c3.1,1.4,15.5-6.8,16.7-9.1
			c2.8-5.4-9.1-4.3-15.2-4.9c-5.2-0.5-10.4-1-15.6-1.8c-4.4-0.7-8.4-1.6-11.6-5.6c-3.1-3.9-8-3.4-9.1,0.3
			c-3.4,11.9-0.7,23.5,1.8,35.1c1,4.5,1.7,9,2.6,13.4c0.9,4.5,1.2,9.2,3,13.4c2.1,4.8,7.5,6.3,11.5,3.1c4.9-4,9-8.9,13.4-13.5
			c1.7-1.8,3-3.9,5-5.3c0.8-0.6,3.2-0.4,4,0.4c3.3,3.4,6,7.5,9.5,10.7c2.7,2.4,3.4,0.6,6.2,0.2C424.9,706.1,425.3,706.2,425.7,706.2
			z"/>
		<g>
			<path class="st1" d="M402.7,731.9c-0.2-1.4-1.7-2.9-3-3.7c-1.1-0.7-2.9-1.1-4-0.7c-1,0.4-1.6,2.1-2.9,4.1
				c2.1,3.5,3.9,7.1,6.4,10.1c4.7,5.5,9.7,10.6,14.9,15.6c0.9,0.9,3.3,0.4,5,0.5c-0.7-1.3-1.2-2.8-2.1-3.9
				C411.2,747.3,404.2,741.5,402.7,731.9z"/>
			<path class="st1" d="M591.2,740.3c-4-5.5-7.7-11.4-12.6-15.8c-6.9-6.1-15-10.8-22.2-16.6c-6.4-5.2-13.5-8.5-21.4-9.2
				c-13.8-1.2-27.6-1.4-41.5-1.8c-16.5-0.5-33-1.3-48.7-7.3c-3.2-1.2-5.6-1.1-6.6,2.5c-1,3.5,1.1,6.9,4.6,7.5
				c7.5,1.2,15,2.6,22.5,3.4c14.5,1.4,29,2.5,43.6,3.7c0-0.3,0-0.6,0.1-0.9c5.4,0.4,10.9,1.2,16.3,1c14.6-0.5,25.7,7.1,36.5,15.4
				c8.7,6.6,17.5,13.1,24.5,21.5c0.7,0.9,2.8,0.7,4.2,1C590.7,743.2,591.8,741.1,591.2,740.3z"/>
			<path class="st1" d="M493.1,747.1c-3.8-0.8-7.6-1.9-11.5-2.1c-8.2-0.4-16.5-0.1-24.7-0.6c-2.5-0.1-4.6-1.2-5.1,2.4
				c-0.6,4.5,1.2,7.5,4.8,7.9c10.5-1.2,21.1-2.3,31.6-3.6c1.6-0.2,3.2-0.8,4.7-1.4c0.7-0.3,1.3-0.8,2-1.3
				C494.3,748,493.7,747.2,493.1,747.1z"/>
			<g>
				<path class="st1" d="M374,727.6c-6.5-0.2-13,0.2-19.5,0.4c-1.7,0-3.3-0.1-5-0.1c-10.3,0.3-20.7,0.6-31,1
					c-7.5,0.3-15.1,0.9-22.6,0.9c-12.5,0-25.1-0.4-37.6-0.5c-4.8,0-9.5,0.4-14.3,0.4c-0.7,0-1.4-0.5-2.2-0.8
					c0.4-0.4,0.7-0.9,1.1-1.1c3.1-1.4,4.3-3.9,4.1-7.2c-0.2-3.8-3-5.5-6-6.5c-2.2-0.7-4.7-0.5-7-0.5c-8.3,0.1-16.7,0.4-25,0.3
					c-6.9,0-13.8-0.5-20.7-0.6c-7.7-0.2-15.4,0.2-23-0.6c-6.6-0.6-13.2-2.5-20.4-3.9c-12.1,1.8-24.5,4-36.9,5.6
					c-11.8,1.5-22.8,4.7-32.7,11.7c-8.6,6.1-17.7,11.4-25.9,18c-8.6,7-15.9,15.6-20.4,25.9c-1.5,3.5-1.9,7.6-2.2,11.4
					c-0.1,1.2,1.6,2.5,2.5,3.8c0.9-1.1,1.9-2.1,2.5-3.4c1.4-2.8,2-6.3,4-8.5c7.8-8.7,15.6-17.4,24.3-25.2
					c6.2-5.6,13.6-9.8,20.6-14.5c6.7-4.5,13.5-8.8,21.7-10.1c2.2-0.4,4.6-0.2,6.8-0.7c14.8-3.7,29.4-6.1,45-2.2
					c9,2.2,18.9,0.9,28.4,1.3c3.6,0.1,7.2,0.3,10.9,0.6c7.1,0.6,14.6,3.1,21.2,1.6c8.5-1.9,14.7,3.4,22.1,3.8c0.6,0,1.1,0.5,1.6,0.8
					c-0.4,0.4-0.8,1-1.3,1.2c-0.9,0.4-2,0.5-2.8,0.9c-1,0.6-2.7,1.6-2.6,2.1c0.3,1.2,1.2,2.9,2.3,3.2c2.8,0.9,5.8,1.3,8.7,1.7
					c9.2,1,18.5,1.8,27.7,2.9c8.5,1,16.8,0.5,25.2-0.7c4.3-0.6,8.7-0.2,13-0.2c0.9,0,1.8,0.7,2.7,0.7c8.5-0.4,17-1.3,25.6-1.2
					c12.9,0.1,25.7,1.1,38.6,1.4c2,0,5.4-1.3,5.8-2.7c0.7-2.4,0.2-5.7-1.1-7.8C379.2,728.6,376.2,727.7,374,727.6z"/>
				<path class="st1" d="M523.9,476.8c-1.8,0.4-4.1,1.9-4.6,3.5c-0.7,2.2-0.4,5,0.3,7.2c1.5,4.5,0.9,6.4-3.5,7.7
					c-7.2,2-14.8,1.6-21.1-1.6c-7.2-3.8-14.5-5.3-22.3-5.5c-2.6-0.1-5.2-0.8-7.8-0.8c-3.8,0.1-6.5,3.2-5.8,6.5
					c0.8,3.7,2.9,5.3,6.9,3.8c6.7-2.5,13.2-1.8,19.5,1.5c1.7,0.9,3.7,1.2,5.6,1.4c6.7,0.6,13.5,1,20.3,1.3c2.7,0.1,3.9,0.8,2.8,3.5
					c-1.5,3.8-3,7.5-4.4,11.4c-1.8,4.9-3.5,10-5.4,14.9c-4.3,11.3-11.4,21.1-21.7,27c-12,6.9-25.1,11.1-39.7,7.5
					c-12.1-3-24.7-4.1-36.6-7.7c-18.5-5.5-37.5-9.6-54.9-18.3c-0.7-0.3-1.7,0.1-2.4-0.2c-3.7-1.3-7.3-2.6-11-3.9
					c-2.4-1.5-4.6-3.2-7.1-4.4c-17-8.6-29.8-21.6-39.2-38c-7.4-12.9-15.5-25.4-19.7-39.9c-1.6-5.6-4.4-10.9-6.9-16.2
					c-0.6-1.2-2.7-2.5-3.8-2.2c-1.1,0.3-2.5,2.3-2.6,3.6c-0.2,2.5,0.3,5.1,1,7.5c0.6,2,1.8,3.9,2.7,5.9
					c6.7,13.9,12.7,28.2,20.3,41.5c5.9,10.3,13,20.1,20.9,29c9,10.3,21.1,16.5,34.4,20.1c3.7,2.4,7.2,6.2,11.2,6.8
					c4.9,0.7,9.4-0.9,14.1,3.6c3.8,3.5,10.4,4.2,15.9,5.7c14.3,3.7,28.7,7.1,43,10.6c0.8,0.2,1.6,0.4,2.4,0.8c1.6,0.7,2.3,1,0.5,2.9
					c-1.3,1.3-1.5,4-1.7,6.1c-0.2,3.1,0.4,6.3,0.1,9.4c-0.7,7.3-1.9,14.5-2.4,21.7c-0.3,4.4,0.7,8.8,0.5,13.2
					c-0.4,11.5-2,23.1-1.5,34.5c0.6,14.5,2.5,29.1,7,43.1c1.2,3.7,1.9,5.2,2.2,5.8c0,0,0.1,0.3,0.3,0.6c0.4,0.7,0.6,1.3,0.8,1.8
					c2,2.1,3.5,4.8,3.8,6.1c2.4,10.1,9.4,17,16.6,23.6c2.4,2.2,5.7,3.6,8.8,5c0.9,0.4,2.9-0.2,3.3-1c0.5-0.8,0-2.5-0.6-3.5
					c-2.8-4.1-6-7.9-8.6-12.1c-4.9-7.7-9.6-15.5-14.2-23.4c-1.2-2.1-1.9-4.6-2.4-7c-1.3-6.2-2.5-12.4-3.4-18.6
					c-1.4-9.5-3.1-19.1-3.7-28.7c-0.5-8.2,0.1-16.5,0.5-24.7c0.7-14.1-0.1-28.4,5.9-41.8c0.9-1.9,0.7-4.5,0.4-6.8
					c-0.1-1.4-1.2-2.7-1.9-4.1c1.8,0.2,3.6,0.4,5.3,0.6c0.5,0.1,1,0,1.5,0.2c8,3.1,15.7,2.4,24.1,0.2c8.4-2.2,15.7-6.1,23.5-9.3
					c8.6-3.5,14.2-10,18.2-17.8c2.9-5.6,5.2-11.6,7.2-17.7c3-9.2,5.8-18.4,11.7-26.4c5-6.9,5.5-14.9,1.4-22.6
					C527.2,478.1,525,476.5,523.9,476.8z"/>
				<path class="st1" d="M551.3,340.2c4.8-1.6,5.3-6.3,1.5-8.7c-3.2-2-2.8-3.9-2.1-7c1.2-4.9,3.5-9.9,0.8-15.3
					c-1.2-2.5-1.7-5.5-2-8.3c-0.3-2.7,0.8-5.7,0-8.3c-1.9-6.4-4.4-12.6-6.7-18.8c-0.6-2.6-0.9-5.2-1.8-7.7
					c-4.6-12.2-9.1-24.4-14-36.5c-7.2-17.9-16.4-34.8-27.1-50.8c-4.4-6.3-7.5-14.3-13.4-18.5c-11.7-8.3-25-14.6-37.6-21.7
					c-7.7-2.9-15.3-6.6-23.3-8.6c-8.6-2.1-17.2-3.8-25.1-8.3c-2.6-1.5-5.8-1.9-8.7-2.9c-10.8-4-22-3.9-33.2-3.9
					c-8.6,0-17.3,0.3-25.9,0.6c-3,0.1-6,0.7-8.9,1.1c-7.7,1-15.4,1.8-23,3.2c-2.2,0.4-4.1,2.5-6.1,3.9c-1.5-0.2-3.2-0.9-4.6-0.6
					c-3.8,0.8-7.6,2.2-11.4,3.1c-4.8,1.2-8.8,3.3-11.1,7.9c-0.5,1-0.7,2.2-1.1,3.3c1.2-0.2,2.5-0.1,3.7-0.5
					c8.9-3.3,17.7-6.7,26.6-10.1c1.3-0.2,2.6-0.4,3.8-0.7c6.1-1.4,12.1-2.7,18.1-4.2c2.4-0.6,4.7-1.5,7.1-2.2c1.6,0.4,3.1,1.1,4.7,1
					c5.4-0.2,10.9-1,16.3-1c4.5,0,9.5-1.5,13.3,3c0.7,0.8,3,0.6,4.4,0.3c2.4-0.4,4.7-1.9,6.9-1.8c7.6,0.4,15.2,1,22.3,4.3
					c5.2,2.4,10.2,5.8,15.7,6.9c12.9,2.5,25.2,6.2,37.2,11.4c4.3,2.4,8.5,4.8,12.8,7.2c9.6,5.3,19.5,10.1,26.2,19.4
					c4.1,5.7,8.1,11.5,12.1,17.3c1.7,3.4,3.3,6.8,5,10.2c8.7,17.9,17.6,35.8,25.9,53.9c4.3,9.2,7.5,19,9.1,29.1
					c1.6,7.6-1.2,15.7,2.7,23c0.1,0.2-1,1.6-1.7,1.8c-5.7,1.3-11.6,1.9-17.2,3.6c-8.2,2.4-14.7,7.4-20.3,14.1
					c-5.9,7-9.5,18.9-6.2,27.1c1.7,4.3,3.7,8.4,5.6,12.6c8,17.8,14.2,36.3,18.5,55.4c0.3,1.4-1.6,4.8-2.6,4.8
					c-4.5,0.2-9.1-0.9-13.6-0.7c-6.4,0.3-13.4-1.6-18.7,3.2c-1.7,1.5-2.5,5.8-1.7,8c0.9,2.3,3.7,3.5,7.5,1.8c4.2-1.8,9.5-2,14.2-1.7
					c5.9,0.4,11.7,2.3,17.6,3c2,0.2,4.5-0.9,6.2-2.2c5.2-4.2,6-18.1,2.3-24.1c-3.9-6.6-7.7-13.3-10.4-20.4
					c-4-10.1-6.9-20.6-10.4-30.9c-0.9-2.8-1.4-6-3.1-8.1c-5.6-6.8-1.1-13,0.7-19.2c0.8-2.6,3.1-5.8,5.6-6.7c7-2.7,14.3-4.5,21.6-6.4
					c0.8-0.2,2.7,0.9,2.9,1.7c1.5,4.9-0.5,8.9-5.5,10.8c-2.9,1.1-6.1,1.3-8.8,2.7c-4.3,2.2-8.8,4.5-12.3,7.8
					c-2.6,2.6-3.8,7-0.4,10.2c2,1.9,5.5,4.1,7.7,3.5c3.6-0.9,6.1-0.3,9.2,1.1c3.2,1.4,6.8,1.5,10.2,2.5c1.3,0.4,3,1.4,3.3,2.5
					c1.9,5.8,5,11.7,4.9,17.5c-0.3,14,1.1,28.1-3.4,41.8c-4.7,14.6-8.5,29.4-12.7,44.1c-0.1,0.4-1.1,0.5-1.6,0.7
					c-1.6-1.6-3.9-4.8-4.6-4.5c-6.3,3-12.1-1.8-17.5-1c-6.5,1-13,4.8-18.4,8.8c-7.5,5.6-15.1,7.1-24,4.9c-1.9-0.5-4.3-0.2-6.2,0.5
					c-0.5,0.2-0.6,3.7,0.2,4.8c1.4,1.8,3.7,3.9,5.8,4.1c6,0.7,12.6-3.3,17.7,2.9c0.4,0.5,1.6,0.5,2.4,0.5c8.2,0,16.4-0.1,24.6-0.3
					c0.8,0,2-1.3,2.1-2.2c0.1-0.8-0.7-2.3-1.5-2.6c-2.5-0.8-5.1-1.2-7.7-1.7c-3.3-0.7-6.5-1.4-9.8-2.1c2.8-2.1,5.5-4.3,8.4-6.4
					c3.6-2.6,6.8-2.7,9.9,1.2c0.9,1.1,4.7,1.5,5.3,0.7c3.1-4,7.2-3.5,11.3-3.3c0.3,0.8,0.5,1.6,0.9,2.3c1.1,1.7,2.1,4,3.7,4.8
					c1.2,0.6,4.6-0.3,4.9-1.2c1.8-5.6,3.1-11.3,4.5-17c2.1-8.7,4.2-17.5,6.2-26.3c2.3-10.1,4.6-20.1,6.5-30.2
					c0.5-2.8-0.3-5.9-0.1-8.8c1.4-14.9-1.6-29.2-4.9-43.6C547,346.3,545,342.3,551.3,340.2z"/>
				<path class="st1" d="M156.2,696c1.4-0.2,2.8-1,4-1.9c8.1-6.5,16.3-12.9,24.2-19.6c3.6-3.1,6.7-6.8,9.9-10.4
					c6.7-7.5,14.1-14.5,20-22.6c12.7-17.8,20.9-37.7,26-58.9c1.5-6.5,3.3-12.9,4.9-19.4c0.4-2.7,0.8-5.4,1.3-8.1
					c1.8-9.3,4-18.6,5.6-28c2-11.9,3.3-23.7-0.9-35.5c-1.7-4.7-2.4-9.8-3.8-14.7c-1.9-7-4-14-6-21c-2.8-6.8-5.5-13.6-8.2-20.4
					c-0.2-0.5-0.2-1.1-0.4-1.6c0.4,0.2,0.9,0.4,1.3,0.6c5.2,2.6,13.6,1.2,17.6-3.2c1.1-1.2,1.4-3.1,2.1-4.7
					c-1.8,0.2-3.8-0.2-5.4,0.6c-6.1,3-11.1,2.2-15.5-3.1c-2-2.4-3.3-5.4-4.9-8.1c-5.2-9-10.5-17.9-15.7-26.9
					c-2.9-5-5.6-10.1-8.4-15.1c-0.1-1.1-0.2-2.3-0.4-3.4c-1.8-9.1,1.2-17,6-24.4c0.9-1.5,2.9-2.8,4.6-3.1c3.8-0.9,7.8-1.5,11.7-1.5
					c3.7,0,8.8-0.5,10.8,1.6c4.7,5,9.2,10.8,8.7,18.7c-0.1,1.4,1.3,3.3,2.5,4.1c1.1,0.7,3.9,0.9,4.3,0.3c0.9-1.4,1.6-3.9,1-5.3
					c-3.2-7-6.4-14.2-10.7-20.5c-1.8-2.6-6.3-4.2-9.7-4.5c-6-0.5-12.1,0-18,0.9c-3.3,0.6-7.4,2.2-9.2,4.7
					c-3.4,4.8-5.5,10.5-8.1,15.9c-0.4,0.9-0.6,1.9-0.8,2.9c-0.7-0.9-1.6-1.7-2-2.8c-2.1-6.4-4-12.8-6.1-19.2
					c-1.3-3.9-2.9-7.6-4.3-11.4c0.1-1.1,0.4-2.2,0.2-3.2c-0.9-3.9-2.5-7.8-3-11.7c-0.4-3.5,0.5-7.2,0.8-10.8
					c0.5-6.7-2.6-12.3-5.2-18.1c1.3-2.1,3.2-4,3.7-6.2c1.7-7.6,2.4-15.5,5.8-22.6c0.6-4.4,1.1-8.9,1.9-13.3
					c0.6-3.6,1.6-7.2,2.3-10.8c1.5-7.3,7.6-13.2,6.4-21.3c1-0.4,2.4-0.6,2.8-1.4c4.3-7.5,8.8-15,12.5-22.8c2.3-4.8,8.2-7.4,7.9-13.6
					c0.7-0.2,1.9-0.7,2-0.6c1,1.8,1,1.8,2.4,0.4c0.5-0.6,0.9-1.2,1.4-1.9c0.3-0.4,0.7-0.7,1-1.1l0,0l0,0c0.7-0.3,1.3-0.6,2-1
					c1.9-1.7,4-3.3,5.7-5.2c1.6-1.7,1.1-2.4-1.8-2.8c-0.6,0.7-1.3,1.3-1.9,2l0,0c-0.7,0-1.3-0.1-2-0.1c-0.6-0.6-1.1-1.3-1.7-1.9
					c-0.5,0.6-1,1.1-1.5,1.7c-1.7,1.3-3.7,2.3-5,3.9c-1.6,1.9-2.8,4.2-4.1,6.4c-4.6,4.9-9.3,9.7-13.7,14.8c-2.4,2.8-4.4,6-6.1,9.2
					c-2.2,4.2-4,8.7-5.9,13c-3.3,10.3-6.7,20.7-10,31c-1.6,6.4-3.4,12.7-4.6,19.2c-1.5,8.2-6.3,16.5-0.3,24.8c-1,1.8-2.9,3.6-3,5.4
					c-0.1,5.8,0,11.6,0.8,17.3c1.3,8.5,3.2,17,4.9,25.5c0.3,2.4,0,5,0.8,7.3c6,16.2,12.2,32.4,18.3,48.5c2.7,5.4,5.1,10.9,8.2,16
					c4.4,7.5,9.2,14.7,13.8,22c3.6,8.1,7.2,16.2,10.8,24.2c1.8,7.5,2.8,15.3,5.7,22.4c5.7,13.7,7.3,28.1,7,42.4
					c-0.2,13.7-3.6,27.4-5.5,41c-0.4,1.4-1,2.8-1.2,4.3c-2.3,15.8-6.7,31.1-12.7,45.7c-6.3,15.4-14.8,29.8-26.8,41.7
					c-14.9,14.8-29.5,29.8-44.2,44.8c-1,1-1.2,2.7-1.8,4.1C153,695.7,154.7,696.2,156.2,696z"/>
				<path class="st1" d="M464.6,303.1c-6.9-0.4-13.9-0.5-20.9-0.5c-7.1-0.1-14.4,1.1-20.8-3.5c-0.7-0.5-2.4-0.5-3.1,0
					c-2.7,1.7-5.5,3.5-7.8,5.8c-1,1-0.6,3.2-0.9,4.9c1.3,0.1,2.6,0.3,3.9,0.3c1.3,0,3.3-0.9,3.8-0.3c3.4,3.5,6.7,0.8,10,0.3
					c2.3-0.3,4.6-0.1,6.9,0.1c5.6,0.5,11.2,1.3,16.8,1.8c4,0.4,7.9,0.4,11.2,3.7c1,1,3.9,1.2,5.4,0.5c1.6-0.8,2.6-3,3.3-3.8
					C472.4,306.6,469.5,303.4,464.6,303.1z"/>
				<path class="st1" d="M386.9,346.1c0.2,3,4.5,6.8,7.8,6.1c6.6-1.3,13-3.5,19.6-4.7c2.1-0.4,4.9-3.6,7,0.3c-1.5,1-3.7,1.6-4.5,3
					c-2.6,4.5,1.1,9.6,6.4,9.6c8.6,0.1,17.1,0.6,25.7,0.4c1.7,0,4.1-1.6,5-3.2c2.3-4.1,3.7-8.8,6-12.9c1.2-2,3.4-4,5.6-4.6
					c3.9-1.1,5.3-3.1,4.2-6.8c-1.2-3.9-4.6-5.3-8.2-4.3c-2.5,0.7-5.8,1.5-7.7,0.4c-3.4-2-6.8-2.2-10.4-2.5
					c-6.2-0.7-11.8,0.8-17.1,3.7c-2.7,1.4-5.4,2.7-8.1,4.1c-8,1.6-16,3.4-24.1,4.6C389.3,340.1,386.6,342.3,386.9,346.1z"/>
				<path class="st1" d="M475.6,417.9c-0.3-2.2-2.7-4.4-4.7-5.8c-1.1-0.8-4.4-0.4-5,0.5c-2.3,3.6-3.9,7.7-5.8,11.6
					c0.4,0.2,0.8,0.4,1.2,0.5c0.1,7.5,6.4,13.3,13.5,11.9c1.7-0.3,3.2-2,4.8-3c-0.9-1.1-1.8-2.4-2.8-3.4c-1.2-1.1-2.7-2-3.8-3.1
					c-0.4-0.4-0.4-1.6-0.1-2.2C473.8,422.5,475.9,420,475.6,417.9z"/>
				<path class="st1" d="M245.4,153.1c4.3-3.4,9.5-5.7,13.9-8.9c1.2-0.9,2.1-4.2,1.4-5.3c-1.4-2.3-3.9-2.9-6,0.1
					c-1,1.4-2.3,2.9-3.9,3.6c-6.4,2.8-12.2,6.2-15.9,12.3c-0.4,0.5-0.7,1.1-1.1,1.6c0.4-0.1,0.7-0.3,1.1-0.4
					C238.8,156.5,242.1,155.8,245.4,153.1z"/>
			</g>
		</g>
	</g>
</g>
</svg>
