<?xml version="1.0" encoding="utf-8"?>
<!-- Generator: Adobe Illustrator 19.2.1, SVG Export Plug-In . SVG Version: 6.00 Build 0)  -->
<svg version="1.1" xmlns="http://www.w3.org/2000/svg" xmlns:xlink="http://www.w3.org/1999/xlink" x="0px" y="0px"
	 viewBox="0 0 86.8 87" style="enable-background:new 0 0 86.8 87;" xml:space="preserve">
<style type="text/css">
	.st0{fill:none;stroke:#68A99B;stroke-width:3;stroke-linecap:round;stroke-miterlimit:10;}
	.st1{fill:#68A99B;}
</style>
<g id="Layer_1">
</g>
<g id="Layer_2">
	<circle class="st0" cx="43.3" cy="43.3" r="41.5"/>
	<path class="st1" d="M30.2,40.3l20,0c0,4.9-9,6.1-9,9.1c0,11.6-0.1,25.6,0,32.9c0,2.3,4,1,4,3.1l-10-0.1c0-2,4-1,4-3
		c0-4.2,0-13.5,0.1-32.9C39.2,46.1,30.2,45.1,30.2,40.3z"/>
	<path class="st1" d="M35.1,38c1.4-1.8,2.7-4.5,5.1-5.7s3.1,1,6.5-1.1c3.5-2.1,4.1-4.1,6.4-5.1c2.4-1,4.5-1.2,5.6-1.2
		c2.3,0.1,2.7,0.7,3.8,1.2s4.4,2.1,6,7.5c1.5,5,0.4,9.9-2.4,13.9c-3.2,4.6-8.2,7-11.3,9.2c-7.2,5.1-17.1,7.5-19.9,12.2
		c-0.5,0.8,0.3,2.3,1.7,3.2c3.6,2.3,9.4,5.6,9.4,5.6s-5.5-1.6-10.1-3.8c-1.8-0.9-3.5-3.1-3.5-4.7c0-3.2,5.9-6.1,5.9-6.1
		s12.9-6.2,21-12.6c2.6-2,4-2.9,5.3-5.5c1.4-2.6,2.2-8.4,0.6-11.9c-1.4-3-3.2-6-7.9-5.9c-4.7,0.1-6.7,3.4-8.7,5.3s-3,4.8-5.1,5.3
		C41.6,38.5,35.1,38,35.1,38z"/>
	<path class="st1" d="M19.7,20C25,14.5,45,26.6,55.8,40.3C69.6,57.6,70.9,65.6,67.6,70c-5.3,7.1-22.3-4.6-33.9-17.1
		C22.7,41.1,14.4,25.6,19.7,20z M32.1,53.5C43.3,66.4,63,78.4,69.3,72.2s-1.7-19-11.3-32S23.6,10.8,17.3,17.4
		C10.2,24.7,21.1,40.8,32.1,53.5z"/>
	<path class="st1" d="M61,14.5c6,5.9-4.8,23.5-12.5,32.2C39.2,57.4,24.1,69.9,18,63.4c-6.4-6.9,7.4-26.9,14.6-34.1
		C41.6,20.3,56,9.6,61,14.5z M30.7,29.6C18.9,42.4,10.5,58.9,16,65.2s21.2-4,33.5-17.1S68,16.6,62.7,12C56.8,7,42.5,16.8,30.7,29.6z
		"/>
</g>
</svg>
