<?xml version="1.0" encoding="utf-8"?>
<!-- Generator: Adobe Illustrator 19.2.1, SVG Export Plug-In . SVG Version: 6.00 Build 0)  -->
<svg version="1.1" xmlns="http://www.w3.org/2000/svg" xmlns:xlink="http://www.w3.org/1999/xlink" x="0px" y="0px"
	 viewBox="0 0 277.2 230.6" style="enable-background:new 0 0 277.2 230.6;" xml:space="preserve">
<style type="text/css">
	.st0{fill:#77BDAB;}
</style>
<g id="Layer_1">
</g>
<g id="Layer_2">
	<path class="st0" d="M2.7,6.2c0,0,37-8.8,73.4,12.1s52.4,64.6,52.4,64.6h-8.3c0,0-16.4-44.6-51.3-61.3S2.7,6.2,2.7,6.2z"/>
	<path class="st0" d="M67.8,123.7c0.8,0.2-17.1-3.9-25.9-21s-7.2-54.1-16-75.6S2.7,6.2,2.7,6.2s11,6.1,14.9,20.4s8.8,49.7,11.6,62.9
		S38.5,117.6,67.8,123.7z"/>
	<path class="st0" d="M111.4,118.2c0,0-36.9-0.1-46.1,11.1c-11.9,14.5-14.6,19.6-15.9,29.2c-1.5,10.9,3.5,35.3,2.9,47.5
		c-0.6,12.1-13.2,15.5-13.2,15.5s10.5,1.7,18.8-8.3c8.3-9.9-1.7-26.2-0.6-47.9c1.1-21.7,10.5-29.5,17.9-36
		C83.5,121.9,111.4,118.2,111.4,118.2z"/>
	<path class="st0" d="M273.7,6.2c0,0-37-8.8-73.4,12.1s-52.4,64.6-52.4,64.6h8.3c0,0,16.4-44.6,51.3-61.3S273.7,6.2,273.7,6.2z"/>
	<path class="st0" d="M208.6,123.7c-0.8,0.2,17.1-3.9,25.9-21c8.8-17.1,7.2-54.1,16-75.6s23.2-21,23.2-21s-11,6.1-14.9,20.4
		c-3.9,14.3-8.8,49.7-11.6,62.9S237.9,117.6,208.6,123.7z"/>
	<path class="st0" d="M165,118.2c0,0,36.9-0.1,46.1,11.1c11.9,14.5,14.6,19.6,15.9,29.2c1.5,10.9-3.5,35.3-2.9,47.5
		c0.6,12.1,13.2,15.5,13.2,15.5s-10.5,1.7-18.8-8.3c-8.3-9.9,1.7-26.2,0.6-47.9s-10.5-29.5-17.9-36C192.9,121.9,165,118.2,165,118.2
		z"/>
	<path class="st0" d="M137.7,87.8c-2.9,0.7-12.1,3.3-15.4,8.9c-5.4,9.2-5.6,12.8-4.2,20c1.8,9.9,6.6,23.4,14.5,37.3
		c-2.4,4.2-4.8,8.1-7.1,11.3c-8.6,12.2-20.7,27.8-32,36.6c-8.2,6.3-18,11.3-30.3,16.9c-8.9,4.1-19.9,5.3-19.9,5.3
		c9.1,1.8,20.8-0.1,37.8-8c16.9-7.9,24.2-14.1,43-34.5c5.4-5.9,10.2-12.1,14.3-18.4c4.1,6.3,8.9,12.5,14.3,18.4
		c18.8,20.4,26,26.6,43,34.5c16.9,7.9,28.7,9.8,37.8,8c0,0-11-1.3-19.9-5.3c-12.3-5.6-22.1-10.6-30.3-16.9
		c-11.3-8.7-23.4-24.3-32-36.6c-2.3-3.2-4.7-7.1-7.1-11.3c7.8-13.9,12.6-27.4,14.5-37.3c1.3-7.2,1.2-10.8-4.2-20
		c-3.3-5.5-12.5-8.2-15.4-8.9 M129.5,116.6c-1.9-14.6,4.7-22.5,8.7-22.9c4,0.5,10.6,8.4,8.7,22.9c-1,7.7-4.4,17.2-8.7,26.3
		C133.9,133.8,130.5,124.3,129.5,116.6z"/>
	<line class="st0" x1="128.5" y1="78" x2="147.9" y2="78"/>
	<line class="st0" x1="138.2" y1="81.2" x2="138.5" y2="97.9"/>
</g>
</svg>
